{"glyphs":{"0":{"ha":387,"x_min":0,"x_max":0,"o":"m 71 -2 b 243 116 127 4 185 43 b 359 317 301 188 340 255 b 367 360 364 334 367 348 b 307 411 367 394 347 411 b 216 374 281 411 251 399 b 78 211 163 331 117 277 b 20 54 39 146 20 94 b 71 -2 20 17 37 -2 z m 71 28 b 55 32 63 28 58 29 b 50 54 52 35 50 42 b 98 184 50 85 66 128 b 235 350 135 250 181 306 b 308 382 263 371 287 382 b 337 360 326 382 336 374 b 331 326 337 353 335 341 b 268 200 319 288 298 245 b 169 81 238 155 205 115 b 71 28 133 47 100 30 z "},"1":{"ha":298,"x_min":0,"x_max":0,"o":"m 36 -2 b 49 5 41 -2 45 0 b 277 397 201 263 277 394 b 273 408 277 401 276 404 b 262 412 270 410 267 412 b 255 410 260 412 258 412 b 100 342 187 372 136 349 b 87 327 91 340 87 336 b 92 316 87 322 88 319 b 101 313 95 313 98 313 b 161 331 112 313 132 319 b 222 359 182 340 203 349 b 20 13 88 132 20 16 b 28 0 20 7 23 3 b 36 -2 31 -1 33 -2 z "},"2":{"ha":429,"x_min":0,"x_max":0,"o":"m 288 2 b 298 7 292 2 295 3 b 303 18 302 10 303 14 b 298 28 303 22 302 25 b 197 64 272 52 238 63 b 85 52 155 64 118 60 b 184 123 113 74 146 98 b 344 243 248 165 301 205 b 408 345 387 280 408 315 b 406 362 408 351 408 357 b 322 419 392 400 363 419 b 235 387 291 417 262 407 b 180 317 208 368 189 344 l 180 313 b 191 298 180 305 184 300 l 195 298 b 210 309 203 298 207 301 b 253 363 216 330 231 348 b 326 389 277 380 301 389 b 378 352 352 389 370 376 b 379 344 378 349 379 347 b 265 218 379 316 341 274 b 166 147 231 192 198 168 b 22 31 91 98 43 60 b 20 23 21 28 20 25 b 24 13 20 20 22 16 b 35 8 27 9 31 8 l 40 9 b 108 26 57 15 80 20 b 187 34 136 31 162 34 b 277 7 227 34 257 24 b 288 2 281 3 284 2 z "},"3":{"ha":386,"x_min":0,"x_max":0,"o":"m 58 -10 b 186 37 91 -8 134 7 b 296 139 238 67 275 101 b 306 178 302 153 306 166 b 297 208 306 189 303 199 b 245 236 283 223 266 233 b 326 303 273 254 300 277 b 366 379 353 330 366 355 b 361 397 366 385 364 391 b 322 415 355 409 342 415 b 249 395 302 415 278 408 b 178 351 222 382 199 368 b 144 297 155 331 144 313 b 148 288 144 294 146 290 b 158 283 151 285 154 283 b 174 296 168 283 174 288 b 201 330 176 305 184 316 b 258 366 217 342 236 355 b 324 385 283 379 305 385 b 336 378 332 385 336 383 b 289 309 336 359 320 336 b 191 237 258 281 225 257 b 183 224 186 234 183 229 l 184 219 b 198 209 186 212 191 209 l 205 209 b 275 177 252 209 275 199 b 269 152 275 170 273 162 b 192 77 254 126 229 101 b 83 24 155 52 118 35 b 60 20 73 21 64 20 b 50 20 55 20 52 20 b 73 60 50 27 58 41 b 77 69 75 63 77 66 b 72 81 77 74 75 78 b 62 85 68 83 65 85 b 50 79 57 85 54 83 b 20 20 30 55 20 35 b 23 7 20 15 21 11 b 34 -5 25 3 28 -1 b 58 -10 39 -8 47 -10 z "},"4":{"ha":374,"x_min":0,"x_max":0,"o":"m 98 2 b 110 9 102 2 106 5 l 223 191 l 245 191 b 256 195 250 191 253 192 b 260 205 259 197 260 201 b 242 220 260 216 254 220 b 354 404 317 340 354 401 b 350 415 354 409 353 412 b 341 420 347 418 345 419 b 331 417 338 420 334 419 l 27 221 b 20 209 22 218 20 214 b 35 193 20 199 25 194 l 188 191 b 82 18 117 78 82 20 b 90 5 82 12 85 7 b 98 2 92 3 95 2 z m 207 221 l 85 222 l 290 355 z "},"5":{"ha":436,"x_min":0,"x_max":0,"o":"m 96 -1 b 255 62 151 -1 203 20 b 321 165 287 87 309 122 b 324 192 323 174 324 184 b 305 240 324 212 318 228 b 254 263 287 255 270 262 b 224 263 238 263 228 263 b 160 257 201 263 180 261 l 253 380 l 401 380 b 412 385 405 380 408 381 b 416 395 414 387 416 391 b 412 406 416 399 414 403 b 401 410 408 409 405 410 l 245 410 b 233 404 241 410 237 408 l 111 241 b 107 232 109 238 107 235 b 110 224 107 229 108 227 b 123 217 113 220 118 217 l 127 218 b 229 233 161 228 195 233 b 294 191 273 233 294 219 b 292 172 294 185 293 179 b 234 83 281 136 262 106 b 96 29 189 47 142 29 b 45 44 75 29 58 34 b 36 48 43 47 39 48 b 24 44 31 48 27 47 b 20 34 22 41 20 37 b 25 22 20 29 22 25 b 96 -1 43 7 66 -1 z "},"6":{"ha":389,"x_min":0,"x_max":0,"o":"m 90 -2 b 167 22 117 -2 142 6 b 229 79 192 37 212 56 b 263 160 252 109 263 136 b 254 195 263 173 260 184 b 175 229 240 218 214 229 l 157 228 b 193 264 168 239 180 252 b 296 354 233 303 267 333 b 351 385 326 375 343 385 l 353 385 b 368 397 361 385 366 389 l 368 401 b 356 415 368 408 364 413 l 353 415 b 226 336 328 415 285 389 b 109 218 186 300 147 261 b 106 215 108 217 107 216 b 23 79 65 169 37 123 b 20 56 21 71 20 62 b 61 2 20 29 34 11 b 90 -2 71 -1 81 -2 z m 91 28 b 50 55 64 28 50 37 b 127 193 50 85 75 131 b 176 198 146 196 163 198 b 233 161 214 198 233 185 b 205 97 233 143 224 122 b 148 45 188 75 169 57 b 91 28 127 34 108 28 z "},"7":{"ha":323,"x_min":0,"x_max":0,"o":"m 35 -2 b 48 5 41 -2 45 0 l 173 196 l 250 196 b 261 201 254 196 258 197 b 265 211 264 203 265 207 b 261 222 265 215 264 218 b 250 226 258 224 254 226 l 193 226 l 300 392 b 303 401 302 395 303 398 b 300 409 303 404 302 406 b 288 415 297 413 293 415 l 263 412 b 139 400 214 404 173 400 b 92 404 121 400 106 401 l 89 405 b 74 393 81 405 77 401 l 73 389 b 85 375 73 382 77 377 b 142 370 102 372 121 370 b 256 380 174 370 213 373 l 157 226 l 82 226 b 72 222 78 226 75 224 b 67 211 68 218 67 215 b 72 201 67 207 68 203 b 82 196 75 197 78 196 l 137 196 b 20 13 60 77 20 16 b 27 0 20 7 23 3 b 35 -2 30 -1 33 -2 z "},"8":{"ha":359,"x_min":0,"x_max":0,"o":"m 106 -3 b 195 49 156 -3 185 14 b 206 136 203 78 206 107 b 205 173 206 149 206 161 b 245 210 210 176 222 189 b 339 348 307 270 339 316 b 311 407 339 372 330 391 b 264 424 298 418 282 424 b 199 392 241 424 219 413 b 173 332 184 374 175 354 b 170 272 171 309 170 289 b 172 227 170 258 170 243 b 20 57 71 161 20 104 b 23 39 20 51 21 45 b 106 -3 35 11 62 -3 z m 106 27 b 52 49 76 27 58 35 b 50 58 50 52 50 54 b 174 192 50 90 91 135 b 176 138 175 172 176 155 b 171 76 176 114 174 94 b 123 28 165 47 149 31 z m 203 211 b 203 215 203 213 203 214 b 200 277 202 216 201 236 b 201 309 200 288 200 299 b 221 372 203 337 210 358 b 252 394 235 387 245 393 b 263 394 259 394 262 394 b 294 383 275 394 285 391 b 307 361 302 376 307 369 b 309 349 309 354 309 350 b 294 311 309 336 304 324 b 203 211 257 264 227 231 z "},"9":{"ha":420,"x_min":0,"x_max":0,"o":"m 68 4 b 98 9 78 4 87 5 b 323 267 167 35 241 120 b 388 392 353 321 375 363 b 400 418 396 403 400 412 b 397 426 400 421 399 424 b 384 435 395 431 390 434 b 370 426 378 434 373 431 l 362 408 b 340 384 357 401 350 393 b 278 410 326 401 305 410 b 149 357 235 410 192 392 b 82 253 112 328 90 293 l 81 241 b 86 219 81 231 83 224 b 119 200 93 206 104 200 b 318 321 166 203 233 243 b 88 37 235 159 158 65 b 69 34 81 35 75 34 b 43 41 60 34 51 37 b 35 43 40 43 38 43 b 22 36 30 43 25 41 b 20 29 21 34 20 31 b 28 15 20 23 23 18 b 68 4 41 7 54 4 z m 121 230 b 112 235 115 230 112 231 b 112 243 112 238 112 241 l 112 249 b 169 335 118 281 137 310 b 278 380 206 365 243 380 b 319 362 294 380 307 374 b 257 309 301 345 281 328 b 121 230 187 256 142 230 z "}," ":{"ha":345,"x_min":0,"x_max":0,"o":""},"!":{"ha":467,"x_min":0,"x_max":0,"o":""},"\"":{"ha":182,"x_min":0,"x_max":0,"o":""},"#":{"ha":471,"x_min":0,"x_max":0,"o":""},"$":{"ha":378,"x_min":0,"x_max":0,"o":""},"%":{"ha":319,"x_min":0,"x_max":0,"o":""},"&":{"ha":654,"x_min":0,"x_max":0,"o":""},"'":{"ha":113,"x_min":0,"x_max":0,"o":""},"(":{"ha":416,"x_min":0,"x_max":0,"o":""},")":{"ha":498,"x_min":0,"x_max":0,"o":""},"*":{"ha":225,"x_min":0,"x_max":0,"o":""},"+":{"ha":316,"x_min":0,"x_max":0,"o":""},",":{"ha":96,"x_min":0,"x_max":0,"o":""},"-":{"ha":282,"x_min":0,"x_max":0,"o":""},".":{"ha":78,"x_min":0,"x_max":0,"o":""},"/":{"ha":383,"x_min":0,"x_max":0,"o":""},":":{"ha":157,"x_min":0,"x_max":0,"o":""},";":{"ha":191,"x_min":0,"x_max":0,"o":""},"<":{"ha":292,"x_min":0,"x_max":0,"o":""},"=":{"ha":287,"x_min":0,"x_max":0,"o":""},">":{"ha":283,"x_min":0,"x_max":0,"o":""},"?":{"ha":599,"x_min":0,"x_max":0,"o":""},"@":{"ha":409,"x_min":0,"x_max":0,"o":""},"A":{"ha":1240,"x_min":0,"x_max":0,"o":"m 760 -336 b 775 -324 768 -336 773 -332 l 775 -321 b 764 -307 775 -313 771 -309 b 732 -253 743 -302 732 -284 b 884 106 732 -186 783 -66 b 1036 92 936 96 987 92 b 1249 137 1112 92 1182 106 b 1257 151 1255 140 1257 144 b 1256 157 1257 153 1257 155 b 1242 165 1253 163 1249 165 b 1236 164 1240 165 1238 165 b 1108 125 1186 140 1143 127 b 1035 122 1073 123 1048 122 b 901 134 991 122 946 126 b 1125 477 972 251 1046 366 b 1322 749 1203 589 1269 680 b 1325 758 1324 751 1325 754 b 1320 768 1325 762 1324 766 b 1310 773 1317 772 1313 773 b 1299 768 1305 772 1302 771 b 1139 610 1293 762 1240 709 b 676 180 983 456 829 313 b 441 225 567 210 489 224 b 366 227 394 226 369 227 b 152 121 277 227 206 191 b 149 113 150 119 149 115 b 155 100 149 108 151 104 b 165 98 158 98 161 98 b 176 104 170 98 174 100 b 370 196 224 165 289 196 b 648 156 452 196 545 182 b 164 -196 428 -33 267 -150 b 61 -227 119 -217 84 -227 b 26 -214 45 -227 34 -222 b 16 -209 23 -210 20 -209 b 5 -213 12 -209 8 -210 b 0 -224 1 -216 0 -220 b 4 -234 0 -228 1 -231 b 62 -257 18 -250 37 -257 b 684 148 169 -257 376 -122 b 852 111 741 134 796 122 b 702 -256 752 -61 702 -184 b 757 -336 702 -300 720 -327 b 760 -336 758 -336 759 -336 z m 869 139 b 713 172 817 149 764 159 b 1180 607 900 338 1055 484 b 869 139 1057 438 954 282 z "},"B":{"ha":1066,"x_min":0,"x_max":0,"o":"m 251 -336 b 574 -260 350 -335 458 -310 b 914 37 753 -178 867 -79 b 937 148 929 79 937 115 b 902 248 937 188 925 221 b 715 315 862 292 800 313 b 939 452 803 353 878 398 b 1045 598 1001 505 1036 554 l 1046 612 b 1013 669 1046 636 1035 655 b 987 676 1006 673 998 676 b 951 669 977 676 965 674 b 600 338 886 650 768 539 l 886 761 b 888 769 888 764 888 766 b 884 781 888 774 887 778 b 873 785 880 783 876 785 b 863 780 869 784 866 783 b 774 696 859 775 830 747 b 561 528 718 644 646 589 b 332 404 475 468 399 427 b 176 371 266 382 214 371 b 45 401 130 371 86 381 b 38 404 43 403 40 404 b 24 396 32 404 28 401 b 22 389 23 393 22 391 b 30 375 22 382 25 378 b 170 340 72 352 118 340 b 578 503 282 340 418 395 b 785 666 660 561 729 615 b 285 -79 452 172 285 -77 b 291 -92 285 -85 287 -90 b 301 -95 294 -94 298 -95 b 313 -89 305 -95 309 -93 b 396 26 315 -84 343 -45 b 588 275 448 98 513 181 b 644 282 601 278 620 280 b 699 285 668 284 686 285 b 780 278 725 285 752 283 b 880 229 821 271 854 255 b 906 148 897 208 906 180 b 886 47 906 119 899 85 b 701 -158 854 -31 792 -99 b 443 -276 609 -217 523 -256 b 253 -305 362 -296 299 -305 b 138 -289 211 -305 173 -300 b 31 -133 66 -262 31 -210 b 56 -2 31 -96 39 -52 l 57 3 b 47 18 57 9 54 14 l 41 18 b 28 8 35 18 30 15 b 0 -134 9 -47 0 -95 b 3 -170 0 -147 1 -159 b 128 -317 17 -246 59 -295 b 251 -336 164 -330 205 -336 z m 620 314 b 984 646 804 535 925 646 b 998 642 990 646 994 644 b 1016 612 1010 635 1016 625 l 1015 603 b 890 450 1006 559 964 508 b 620 314 815 391 725 346 z "},"C":{"ha":1001,"x_min":0,"x_max":0,"o":"m 216 -346 b 490 -270 294 -346 386 -321 b 1021 142 661 -184 838 -47 b 1025 153 1024 145 1025 149 b 1021 163 1025 157 1024 160 b 1010 168 1017 166 1014 168 b 1000 163 1006 168 1003 166 b 505 -231 797 -42 632 -173 b 214 -316 377 -288 280 -316 b 121 -296 178 -316 147 -309 b 31 -116 60 -266 31 -205 b 35 -48 31 -95 32 -73 b 312 439 61 109 153 272 b 733 725 462 591 602 686 b 795 734 753 730 774 734 b 873 701 829 734 854 722 b 882 669 879 692 882 682 b 852 583 882 646 871 618 b 729 441 823 531 782 484 b 682 411 718 431 702 421 b 635 394 663 401 647 395 b 618 393 625 393 618 393 b 566 420 598 393 581 402 b 553 427 562 425 558 427 b 544 422 549 427 547 425 b 538 416 541 420 539 418 b 538 411 538 413 538 412 b 542 402 538 408 540 405 b 621 363 564 376 589 363 b 747 417 656 363 699 381 b 871 556 804 462 846 508 b 911 669 898 604 911 642 b 897 719 911 688 906 704 b 852 753 886 735 871 747 b 798 764 832 760 814 764 b 726 754 777 764 753 761 b 440 597 640 730 545 678 b 159 304 335 515 241 418 b 5 -44 77 191 26 75 b 0 -120 2 -72 0 -97 b 24 -239 0 -170 8 -210 b 108 -323 47 -281 75 -310 b 216 -346 139 -338 175 -346 z "},"D":{"ha":1413,"x_min":0,"x_max":0,"o":"m 633 -332 b 702 -326 657 -332 680 -330 b 1029 -130 819 -298 928 -233 b 1281 208 1131 -27 1215 85 b 1393 547 1356 348 1393 460 b 1377 623 1393 581 1388 606 b 1247 677 1355 659 1312 677 b 654 242 1088 677 890 532 b 626 208 644 231 635 219 b 878 603 724 364 808 496 b 1005 762 957 671 999 725 b 1003 775 1005 768 1004 772 b 998 781 1001 778 1000 780 b 992 784 996 783 994 783 b 986 785 990 785 989 785 b 972 777 983 785 978 783 b 855 623 956 764 917 713 b 755 546 827 598 793 572 b 589 448 722 521 666 488 b 363 361 511 406 435 378 b 185 335 290 344 231 335 b 20 358 130 335 75 343 l 16 359 b 1 348 8 359 3 355 l 0 344 b 11 329 0 336 4 331 b 178 305 64 313 119 305 b 415 343 252 305 331 317 b 772 522 545 385 665 445 b 802 543 783 528 793 535 b 617 250 755 470 694 372 b 366 -159 517 90 434 -46 b 279 -22 336 -120 307 -75 b 266 -14 277 -16 273 -14 b 251 -27 256 -14 251 -18 b 253 -35 251 -30 252 -33 b 350 -185 284 -96 317 -146 l 288 -288 b 286 -295 287 -290 286 -292 b 294 -308 286 -300 289 -305 b 302 -311 296 -309 299 -311 b 315 -302 307 -311 311 -308 b 371 -210 340 -259 359 -229 b 633 -332 451 -292 538 -332 z m 631 -302 b 388 -183 541 -302 460 -262 b 566 77 433 -111 492 -24 b 808 372 639 178 720 277 b 1051 581 895 467 977 536 b 1244 646 1126 625 1190 646 b 1322 634 1271 646 1297 642 b 1357 594 1341 625 1353 612 b 1364 544 1361 576 1364 559 b 1294 300 1364 481 1340 400 b 1142 46 1254 214 1204 130 b 696 -296 994 -149 846 -262 b 631 -302 673 -300 652 -302 z "},"E":{"ha":695,"x_min":0,"x_max":0,"o":"m 268 -336 b 770 -247 393 -336 560 -306 b 781 -232 777 -245 781 -239 b 774 -220 781 -226 778 -222 b 765 -217 770 -218 768 -217 l 761 -218 b 281 -306 547 -277 388 -306 b 42 -218 147 -306 67 -277 b 29 -155 34 -199 29 -178 b 46 -67 29 -129 35 -99 b 151 130 67 -7 102 58 b 244 126 182 127 213 126 b 458 140 323 126 395 131 b 566 155 522 149 557 153 b 578 170 574 157 578 161 b 572 182 578 175 576 179 b 562 185 569 184 566 185 b 558 184 561 185 560 185 b 498 176 557 184 536 181 b 371 161 459 170 416 165 b 252 157 326 158 286 157 b 172 159 225 157 199 157 b 562 576 279 303 410 443 b 718 611 613 587 665 599 b 1103 677 892 655 1021 677 b 1252 631 1169 677 1219 662 b 1263 627 1255 628 1259 627 b 1273 631 1266 627 1270 628 b 1278 643 1276 634 1278 638 b 1274 652 1278 646 1276 649 b 1107 707 1236 689 1179 707 b 1049 704 1088 707 1069 706 b 711 641 947 692 835 671 b 610 618 677 633 643 625 b 790 757 671 670 731 716 b 796 768 794 760 796 764 b 793 779 796 772 795 775 b 786 784 791 782 788 783 b 781 785 783 784 782 785 b 772 782 778 785 775 783 b 547 604 699 730 623 670 b 345 572 453 584 386 573 b 278 570 304 571 282 570 b 107 621 205 570 149 587 b 98 624 104 623 102 624 b 87 619 94 624 90 623 b 82 610 83 616 82 613 b 87 597 82 605 84 601 b 287 541 132 559 199 541 b 503 565 353 541 425 549 b 217 267 395 467 300 368 b 137 161 189 233 163 199 b 20 184 94 165 54 173 l 14 185 b 1 176 7 185 3 182 l 0 170 b 10 156 0 164 3 159 b 117 133 43 145 79 138 b 0 -155 39 19 0 -77 b 15 -231 0 -182 5 -208 b 268 -336 48 -301 133 -336 z "},"F":{"ha":1027,"x_min":0,"x_max":0,"o":"m 246 -340 b 274 -338 256 -340 265 -339 b 500 -192 355 -324 430 -275 b 694 106 570 -109 635 -9 b 842 99 743 102 792 99 l 876 100 b 1036 137 936 101 989 113 b 1044 151 1041 140 1044 144 b 1042 159 1044 153 1043 155 b 1035 164 1040 161 1038 163 b 1029 165 1032 165 1030 165 b 1021 163 1027 165 1024 165 b 909 131 980 142 943 132 b 842 129 876 130 853 129 b 710 135 798 129 754 131 b 832 382 753 218 794 301 b 921 562 863 446 892 506 l 933 570 b 1050 656 976 596 1015 625 b 1113 747 1092 692 1113 722 b 1098 774 1113 759 1108 768 b 1068 784 1088 781 1078 784 b 1053 782 1063 784 1058 783 b 898 583 1006 764 954 698 b 567 445 801 523 690 477 b 421 427 520 433 472 427 b 351 431 398 427 374 428 b 158 541 275 439 210 476 b 145 548 155 545 151 548 b 136 544 142 548 139 547 b 131 533 132 541 131 538 b 134 524 131 530 132 526 b 414 396 197 439 291 396 b 574 416 463 396 516 403 b 873 534 672 439 772 479 b 805 395 851 491 829 444 b 677 138 765 310 723 224 b 562 144 636 142 597 144 b 528 143 551 144 539 144 b 424 111 484 141 450 130 b 418 98 420 107 418 104 b 422 89 418 95 420 92 b 433 84 425 85 429 84 b 443 87 437 84 439 85 b 511 112 463 103 486 111 b 566 113 536 113 554 113 b 662 109 595 113 628 112 b 478 -172 604 -1 543 -94 b 270 -308 412 -250 343 -296 b 246 -309 262 -309 254 -309 b 26 -179 173 -309 100 -266 b 16 -174 23 -176 20 -174 b 5 -178 12 -174 8 -175 b 0 -190 1 -180 0 -184 b 3 -199 0 -193 1 -196 b 246 -340 83 -293 164 -340 z m 950 616 b 1061 753 993 695 1029 741 l 1067 754 b 1081 750 1072 754 1076 753 b 1082 749 1082 749 1082 749 b 1083 747 1083 749 1083 748 l 1082 744 b 950 616 1075 715 1031 672 z "},"G":{"ha":953,"x_min":0,"x_max":0,"o":"m 98 -335 b 151 -326 113 -335 130 -332 b 542 28 279 -281 410 -163 b 930 117 730 48 859 78 b 966 140 954 130 966 138 b 970 150 969 142 970 146 b 966 161 970 154 969 157 b 956 165 963 164 960 165 b 945 161 952 165 949 164 b 913 142 945 160 935 154 b 798 102 892 131 853 118 b 565 61 743 87 665 73 b 669 230 608 127 643 183 b 715 317 700 284 715 313 b 710 328 715 321 713 325 b 699 332 707 330 703 332 b 691 329 696 332 693 331 b 434 184 575 248 490 199 b 316 160 378 168 339 160 b 222 199 275 160 244 173 b 199 277 207 220 199 246 b 216 370 199 304 205 335 b 374 592 241 444 293 518 b 578 728 465 670 534 715 b 677 747 623 741 656 747 b 732 732 700 747 719 743 b 768 646 756 713 768 684 b 741 526 768 613 759 573 b 741 520 741 524 741 522 b 750 507 741 513 743 509 b 755 505 752 506 753 505 b 769 515 762 505 767 509 b 798 647 789 566 798 610 b 749 756 798 694 782 731 b 669 777 726 770 699 777 b 354 614 587 777 481 723 b 168 280 231 503 168 391 b 199 180 168 241 179 208 b 250 143 210 163 227 151 b 312 131 273 135 293 131 b 407 144 338 131 370 135 b 657 269 470 161 553 202 b 524 56 628 215 583 144 b 391 47 484 53 439 50 b 136 -28 282 39 197 14 b 14 -168 74 -71 33 -117 b 0 -236 5 -193 0 -215 b 51 -325 0 -277 17 -307 b 98 -335 62 -332 78 -335 z m 97 -304 b 47 -285 76 -304 59 -298 b 30 -235 35 -271 30 -255 b 42 -178 30 -218 34 -199 b 154 -53 59 -133 96 -92 b 393 16 212 -14 291 9 b 501 24 431 18 467 21 b 142 -297 378 -151 258 -258 b 97 -304 125 -302 111 -304 z "},"H":{"ha":1311,"x_min":0,"x_max":0,"o":"m 260 -341 b 271 -336 264 -341 267 -340 b 275 -326 273 -334 275 -330 b 485 189 275 -259 345 -87 b 734 143 567 178 650 162 b 861 117 777 134 819 125 b 757 -244 796 -28 762 -149 b 772 -260 757 -254 762 -260 b 787 -245 781 -260 786 -255 b 892 112 795 -140 830 -21 b 1118 89 972 96 1047 89 b 1325 139 1197 89 1267 106 b 1333 152 1330 142 1333 146 b 1329 161 1333 155 1331 157 b 1322 166 1327 164 1325 165 b 1317 168 1320 167 1318 168 b 1310 165 1315 168 1312 166 b 1177 119 1257 135 1213 120 b 1116 119 1141 119 1120 119 b 905 140 1050 119 981 125 b 996 315 935 203 965 261 b 1168 566 1061 425 1118 508 b 1278 654 1220 625 1257 654 b 1295 629 1287 654 1293 646 b 1310 616 1297 621 1302 616 b 1322 621 1316 616 1319 618 b 1325 631 1324 625 1325 628 l 1325 633 b 1278 685 1318 668 1303 685 l 1275 685 b 1129 566 1235 677 1186 638 b 874 146 1033 444 948 304 b 740 173 830 155 785 163 b 500 218 659 191 579 206 b 808 707 632 465 734 629 b 836 728 823 721 832 728 b 836 726 836 727 836 726 b 850 715 839 718 844 715 b 863 722 857 715 861 717 b 866 730 865 724 866 727 l 865 734 b 836 758 860 750 850 758 b 724 652 811 758 774 722 b 468 222 640 534 554 390 b 352 230 428 227 389 230 b 205 214 300 230 252 224 b 3 80 124 196 57 151 b 0 71 1 77 0 74 b 6 59 0 66 2 62 b 15 56 9 57 12 56 b 27 62 20 56 24 58 b 189 179 76 126 130 165 b 354 199 249 193 304 199 b 453 193 386 199 419 197 b 307 -118 397 84 348 -20 b 244 -326 265 -216 244 -286 b 249 -336 244 -330 245 -334 b 260 -341 252 -340 256 -341 z "},"I":{"ha":827,"x_min":0,"x_max":0,"o":"m 138 -334 b 717 259 304 -334 498 -136 b 881 587 784 382 838 492 b 945 707 914 634 936 674 b 959 767 954 741 959 761 b 956 779 959 771 958 775 b 943 785 953 783 949 785 b 930 775 937 785 932 781 b 855 603 928 767 903 709 b 787 535 837 580 814 557 b 378 420 688 458 551 420 b 138 440 304 420 224 427 l 134 441 b 120 428 127 441 122 436 l 120 426 b 133 411 120 417 124 412 b 378 390 221 397 303 390 b 806 512 559 390 702 431 l 817 520 b 643 191 768 418 711 309 b 425 -121 575 74 503 -30 b 190 -296 347 -213 269 -271 b 138 -303 172 -300 155 -303 b 24 -262 98 -303 60 -290 b 15 -259 22 -260 18 -259 b 4 -264 10 -259 6 -260 b 0 -274 1 -267 0 -271 b 5 -286 0 -279 2 -283 b 138 -334 47 -318 91 -334 z "},"J":{"ha":1078,"x_min":0,"x_max":0,"o":"m 100 -337 b 467 -125 188 -337 310 -267 b 730 155 560 -41 648 53 b 848 162 770 160 810 162 b 1072 136 926 162 1000 153 l 1076 135 b 1090 146 1083 135 1088 139 l 1091 150 b 1079 165 1091 158 1087 163 b 850 192 1005 183 928 192 b 755 188 819 192 787 191 b 869 350 798 243 836 296 b 963 532 913 418 945 479 b 991 651 981 584 991 624 b 965 738 991 684 982 713 b 895 762 951 754 928 762 b 842 757 880 762 862 760 b 561 643 755 740 662 702 b 361 445 460 583 393 517 b 354 402 357 430 354 416 b 384 326 354 375 364 349 b 396 321 387 323 391 321 b 406 326 399 321 402 323 b 410 336 408 328 410 332 b 406 347 410 339 409 343 b 384 401 391 363 384 382 b 390 435 384 412 386 423 b 580 620 419 502 483 564 b 848 728 677 676 766 712 b 895 732 866 730 882 732 b 941 719 918 732 933 728 b 960 654 954 702 960 680 b 844 366 960 588 921 492 b 714 183 806 306 763 245 b 416 104 614 170 514 144 b 22 -182 222 22 91 -73 b 0 -252 7 -208 0 -231 b 22 -307 0 -273 7 -291 b 100 -337 42 -327 68 -337 z m 104 -306 b 43 -285 80 -306 60 -298 b 30 -252 35 -275 30 -264 b 48 -197 30 -235 36 -216 b 179 -60 71 -156 115 -111 b 427 77 243 -11 326 35 b 686 149 513 111 599 136 b 446 -103 611 58 531 -26 b 104 -306 294 -238 180 -306 z "},"K":{"ha":1019,"x_min":0,"x_max":0,"o":"m 884 -349 b 923 -345 905 -349 918 -348 b 935 -331 931 -343 935 -338 b 928 -318 935 -325 932 -321 b 920 -315 925 -317 922 -315 b 916 -316 918 -315 918 -316 b 903 -318 916 -317 911 -317 b 884 -319 894 -319 888 -319 b 788 -289 849 -319 817 -309 b 705 -76 737 -250 709 -180 b 602 267 695 83 661 197 b 604 269 603 268 603 268 b 604 269 604 269 604 269 l 618 269 b 1062 486 734 269 883 341 b 1252 652 1137 547 1201 602 b 1338 736 1303 701 1331 729 b 1342 747 1341 740 1342 743 b 1337 758 1342 751 1341 755 b 1326 762 1334 761 1331 762 b 1316 757 1322 762 1319 760 b 1226 669 1313 753 1283 724 b 1015 488 1169 614 1099 553 b 625 298 850 362 720 299 b 758 492 672 365 717 429 b 930 726 830 600 887 678 b 962 753 951 741 962 750 b 963 757 963 755 963 756 b 961 766 963 760 962 763 b 955 772 959 769 957 771 b 948 773 952 772 950 773 b 912 750 940 773 928 765 b 500 510 789 659 651 579 b 287 437 409 468 338 444 b 189 427 236 430 203 427 b 25 483 124 427 70 446 b 14 487 22 486 18 487 b 4 482 10 486 7 485 b 0 473 1 479 0 476 b 5 460 0 467 1 463 b 189 397 56 418 118 397 b 263 404 213 397 237 399 b 577 512 367 422 472 458 b 842 666 682 566 770 616 b 734 508 813 625 777 572 b 590 302 690 444 642 374 b 549 316 575 304 562 309 l 549 316 b 542 318 547 317 544 318 b 528 311 536 318 532 315 b 526 302 527 308 526 305 b 534 290 526 297 529 293 b 535 290 534 290 534 290 b 564 265 537 290 547 281 b 128 -112 382 14 237 -112 b 109 -111 121 -112 115 -111 l 106 -111 b 91 -123 98 -111 93 -115 l 90 -126 b 104 -140 90 -134 95 -139 b 131 -143 113 -142 121 -143 b 353 -26 201 -140 275 -100 b 583 241 431 47 508 137 b 674 -77 635 176 665 70 b 770 -313 680 -191 711 -269 b 884 -349 804 -337 842 -349 z "},"L":{"ha":814,"x_min":0,"x_max":0,"o":"m 1002 -370 b 1212 -300 1107 -370 1177 -347 b 1229 -246 1223 -283 1229 -265 b 1206 -177 1229 -224 1221 -201 b 1194 -170 1203 -172 1198 -170 b 1185 -173 1191 -170 1187 -171 b 1179 -180 1181 -175 1180 -177 b 1178 -185 1179 -182 1178 -184 b 1181 -193 1178 -187 1179 -190 b 1199 -247 1193 -212 1199 -229 b 1187 -283 1199 -259 1195 -271 b 1097 -332 1171 -309 1140 -326 b 1001 -340 1055 -337 1023 -340 b 769 -311 940 -340 863 -330 l 762 -309 b 184 -187 509 -252 317 -211 b 398 47 245 -137 317 -59 b 665 418 479 153 568 277 b 812 627 716 493 765 562 b 901 712 850 661 880 690 b 935 748 922 734 934 747 b 938 758 937 751 938 755 b 934 768 938 762 937 766 b 918 775 929 773 924 775 l 914 775 b 790 648 893 775 852 732 b 578 486 732 594 662 540 b 361 382 495 431 423 396 b 224 360 300 368 254 360 b 47 405 164 360 105 375 b 40 407 45 406 43 407 b 27 399 35 407 30 404 b 25 391 26 396 25 394 b 33 378 25 386 28 382 b 222 331 92 347 155 331 b 631 484 344 331 480 382 b 718 547 662 504 690 525 l 640 435 b 307 -18 530 272 418 121 b 143 -180 235 -102 180 -157 b 35 -168 94 -172 58 -168 b 0 -188 12 -168 0 -174 b 51 -230 0 -202 17 -216 b 79 -236 60 -234 69 -236 b 150 -212 100 -236 124 -228 b 755 -338 275 -233 477 -276 l 763 -340 b 1002 -370 854 -360 935 -370 z m 80 -206 b 55 -198 74 -206 65 -203 b 97 -203 66 -199 81 -201 b 80 -206 91 -205 85 -206 z "},"M":{"ha":1558,"x_min":0,"x_max":0,"o":"m 1400 -336 b 1415 -319 1410 -336 1415 -330 b 1411 -310 1415 -316 1413 -313 b 1401 -305 1409 -307 1406 -306 b 1276 -238 1337 -299 1295 -277 b 1261 -163 1265 -216 1261 -191 b 1275 -70 1261 -135 1265 -104 b 1366 154 1295 -1 1325 74 b 1492 388 1407 234 1449 312 b 1610 609 1548 486 1588 559 b 1643 720 1632 659 1643 696 b 1624 765 1643 740 1637 755 b 1592 774 1616 771 1605 774 b 1126 477 1495 774 1339 675 b 897 252 1038 395 962 319 b 1030 498 960 355 1004 437 b 1067 629 1055 555 1067 599 b 1058 665 1067 645 1064 657 b 1007 690 1049 682 1032 690 l 1000 690 b 783 561 943 682 871 639 b 517 302 696 482 607 396 b 269 66 397 177 315 98 b 454 347 314 132 376 225 b 661 730 586 557 655 685 l 662 743 b 652 762 662 753 659 759 l 647 762 b 636 758 643 762 640 761 b 563 691 633 754 608 732 b 394 562 517 650 461 607 b 227 474 327 516 271 487 b 130 455 182 461 150 455 b 25 494 90 455 56 468 b 14 498 22 497 18 498 b 4 494 10 498 7 497 b 0 484 1 491 0 488 b 4 473 0 480 1 476 b 132 425 41 441 84 425 b 212 438 157 425 184 429 b 447 561 293 465 372 505 b 620 701 522 616 580 663 b 452 401 589 631 534 530 b 216 41 370 271 292 151 b 214 33 214 39 214 36 b 227 18 214 24 218 19 b 342 87 254 18 292 41 b 539 281 393 132 458 197 b 795 531 623 369 709 452 b 1002 661 881 609 950 652 l 1008 661 b 1029 654 1017 661 1024 659 b 1036 625 1034 649 1036 640 b 1008 522 1036 600 1027 566 b 904 321 981 460 947 393 b 777 123 861 248 819 182 b 774 115 776 121 774 118 b 781 102 774 110 777 106 b 789 100 783 100 786 100 b 801 105 794 100 798 102 b 899 210 804 109 837 144 b 1124 433 960 275 1035 349 b 1438 687 1265 564 1369 648 b 1584 746 1506 726 1555 746 b 1606 741 1594 746 1601 744 b 1613 720 1610 738 1613 730 b 1466 403 1613 679 1564 573 b 1250 -45 1344 189 1272 40 b 1230 -162 1237 -96 1230 -135 b 1398 -335 1230 -267 1286 -324 z "},"N":{"ha":1231,"x_min":0,"x_max":0,"o":"m 1047 -334 b 1062 -318 1057 -333 1062 -328 b 1046 -303 1061 -308 1056 -303 l 1030 -303 b 909 -257 968 -303 927 -288 b 897 -197 901 -240 897 -220 b 1095 250 897 -119 962 30 b 1216 469 1148 338 1188 411 b 1257 604 1244 528 1257 573 b 1200 676 1257 646 1238 670 b 1187 677 1196 677 1192 677 b 682 263 1092 677 924 539 l 639 213 b 1026 769 897 581 1026 766 b 1022 780 1026 774 1025 777 b 1012 785 1019 783 1015 784 b 1002 781 1008 785 1005 783 b 895 701 998 777 962 750 b 641 538 828 652 743 597 b 356 408 538 479 444 436 b 139 368 269 381 197 368 b 20 383 98 368 58 373 l 15 384 b 1 373 8 384 3 380 l 0 368 b 10 355 0 361 3 357 b 134 337 48 343 89 337 b 658 513 275 337 449 395 b 943 698 778 583 873 644 l 331 -172 b 328 -181 329 -174 328 -178 b 334 -191 328 -185 330 -189 b 344 -195 337 -194 340 -195 b 355 -189 349 -195 352 -193 b 617 141 419 -102 507 7 b 943 494 728 274 836 391 b 1191 647 1051 596 1133 647 b 1227 604 1215 647 1227 633 b 1190 484 1227 575 1215 535 b 1069 265 1156 416 1116 343 b 866 -196 934 42 866 -112 b 883 -273 866 -225 871 -250 b 1031 -334 907 -313 957 -334 z "},"O":{"ha":944,"x_min":0,"x_max":0,"o":"m 142 -338 b 330 -245 195 -338 258 -307 b 533 -5 399 -184 467 -104 b 952 135 667 20 807 67 b 961 149 958 138 961 142 b 960 155 961 151 961 153 b 946 163 956 161 951 163 b 939 162 944 163 941 163 b 556 31 808 100 680 57 b 576 62 563 41 570 52 b 705 328 629 150 671 239 b 754 571 738 418 754 498 b 685 733 754 643 731 697 b 570 769 652 757 613 769 b 436 739 530 769 485 759 b 165 538 341 699 251 633 b 3 228 79 444 26 341 b 0 186 1 214 0 200 b 73 39 0 125 24 75 b 91 26 79 34 85 30 b 24 -207 46 -62 24 -140 b 90 -326 24 -265 46 -305 b 142 -338 106 -334 123 -338 z m 328 5 b 131 39 250 5 185 16 b 230 210 162 100 195 157 b 319 342 264 264 294 308 b 359 397 343 377 357 395 b 361 406 361 400 361 403 b 355 418 361 411 359 415 b 347 421 353 420 350 421 b 334 415 342 421 338 419 b 250 296 327 406 298 366 b 104 54 201 227 153 145 b 30 186 55 83 30 127 b 33 223 30 198 31 210 b 188 517 54 328 106 426 b 448 711 270 608 356 673 b 572 739 490 730 531 739 b 667 709 606 739 637 728 b 720 623 701 681 718 652 b 724 564 722 594 724 574 b 711 458 724 528 720 492 b 515 23 681 322 616 177 b 328 5 447 11 384 5 z m 145 -307 b 103 -299 130 -307 116 -304 b 56 -240 79 -288 63 -268 b 54 -205 55 -229 54 -218 b 117 12 54 -144 75 -72 b 329 -26 175 -13 245 -26 b 492 -12 378 -26 433 -21 b 298 -233 425 -109 360 -183 b 145 -307 237 -282 186 -307 z "},"P":{"ha":1065,"x_min":0,"x_max":0,"o":"m 290 -355 b 304 -344 298 -355 302 -351 l 305 -340 b 293 -326 305 -332 301 -328 b 269 -305 281 -323 273 -316 b 266 -276 267 -297 266 -287 b 313 -113 266 -237 281 -183 b 474 189 353 -23 407 77 b 649 77 520 114 578 77 b 690 80 663 77 677 78 b 891 192 758 96 825 133 b 1057 389 957 251 1012 317 b 1135 596 1108 474 1135 543 b 1087 680 1135 642 1119 669 b 1038 690 1072 686 1056 690 b 696 481 954 690 840 620 b 584 363 655 441 618 401 b 856 761 692 530 783 663 b 859 770 858 764 859 767 b 854 781 859 774 857 779 b 843 785 850 784 846 785 b 833 781 839 785 836 783 b 765 719 831 777 808 757 b 587 591 722 681 663 638 b 347 481 512 545 432 507 b 101 441 262 454 180 441 b 16 445 73 441 45 442 l 14 445 b 0 430 5 445 0 440 b 13 415 0 421 4 416 b 102 411 43 412 73 411 b 346 448 188 411 269 423 b 754 671 499 499 635 573 b 511 306 686 575 605 453 b 235 -279 327 14 235 -181 b 286 -355 235 -321 252 -347 z m 649 106 b 495 213 585 106 534 142 b 666 407 536 267 593 332 b 873 589 738 482 807 543 b 1037 659 939 635 994 659 b 1076 652 1050 659 1063 656 b 1104 599 1095 645 1104 627 b 1030 404 1104 549 1080 484 b 873 216 987 335 935 272 b 684 110 811 159 748 124 b 649 106 672 108 661 106 z "},"Q":{"ha":1092,"x_min":0,"x_max":0,"o":"m 728 -460 b 859 -441 767 -460 811 -454 b 871 -426 867 -439 871 -434 b 864 -414 871 -420 868 -416 b 856 -412 861 -412 859 -412 l 851 -412 b 722 -430 804 -424 761 -430 b 616 -410 682 -430 647 -423 b 460 -312 557 -385 505 -353 b 386 -256 437 -292 412 -273 l 411 -252 b 844 52 546 -219 690 -118 b 1063 515 989 222 1063 376 b 1055 568 1063 547 1060 564 b 1044 572 1051 570 1048 572 b 1034 567 1040 572 1036 570 b 1030 556 1031 564 1030 560 l 1030 554 b 1032 513 1031 541 1032 527 b 822 71 1032 382 962 235 b 405 -222 673 -94 534 -191 b 370 -226 393 -224 381 -226 b 275 -100 307 -226 275 -184 b 306 54 275 -54 286 -3 b 431 300 334 134 376 216 b 573 334 477 308 525 319 b 903 494 700 375 810 429 b 1062 680 996 560 1048 622 b 1063 696 1063 686 1063 691 b 1029 762 1063 722 1052 745 b 956 785 1008 777 984 785 b 790 723 910 785 855 764 b 414 328 658 634 533 503 b 304 320 375 323 338 320 b 26 418 185 320 93 353 b 15 422 22 420 19 422 b 5 418 11 422 7 420 b 0 407 1 414 0 411 b 4 397 0 404 1 400 b 302 289 75 325 174 289 b 393 295 331 289 361 291 b 245 -100 294 136 245 5 b 270 -205 245 -146 254 -180 b 218 -199 254 -201 236 -199 b 8 -257 160 -199 90 -218 b 0 -271 3 -260 0 -264 b 2 -278 0 -273 1 -275 b 9 -284 4 -281 6 -283 b 15 -286 12 -286 14 -286 b 22 -284 17 -286 20 -286 b 220 -229 100 -248 166 -229 b 275 -237 239 -229 258 -231 b 441 -336 336 -256 391 -289 b 564 -420 477 -366 518 -395 b 728 -460 608 -445 663 -458 z m 454 335 b 806 698 563 492 680 612 b 956 755 865 736 915 755 b 1010 738 976 755 994 749 b 1034 696 1025 727 1034 713 b 1032 685 1034 692 1033 689 b 879 514 1020 633 969 576 b 564 363 789 452 684 401 b 454 335 527 351 490 342 z "},"R":{"ha":1217,"x_min":0,"x_max":0,"o":"m 964 -349 b 999 -347 978 -349 990 -349 b 1019 -339 1010 -345 1017 -342 b 1022 -330 1021 -336 1022 -332 b 1015 -317 1022 -324 1020 -320 b 1006 -315 1012 -315 1009 -315 b 1002 -317 1006 -315 1004 -315 b 976 -318 1001 -317 992 -318 b 932 -313 960 -318 945 -317 b 897 -293 920 -309 909 -302 b 847 -143 864 -264 847 -214 b 849 -95 847 -128 848 -112 b 852 -20 851 -68 852 -43 b 843 87 852 20 849 56 b 805 203 833 135 821 174 b 847 199 818 200 832 199 b 886 201 859 199 872 199 b 1166 318 977 215 1071 254 b 1347 526 1262 382 1322 452 b 1352 561 1350 538 1352 550 b 1303 652 1352 597 1335 627 b 1248 669 1287 663 1269 669 b 916 446 1171 669 1061 594 b 1120 771 1052 652 1120 760 b 1112 783 1120 776 1118 780 b 1105 785 1110 785 1107 785 b 1092 778 1099 785 1095 783 l 1071 743 b 821 529 1019 671 936 600 b 433 351 707 458 577 399 b 17 279 288 303 150 279 b 5 275 12 279 7 278 b 0 264 1 273 0 269 b 4 254 0 260 1 257 b 17 250 7 251 11 250 b 676 417 212 250 431 305 b 989 612 803 477 907 543 b 756 269 926 512 848 397 b 728 288 742 281 732 288 b 717 283 724 288 720 286 b 712 273 713 279 712 276 b 734 238 712 264 720 253 b 468 -85 625 91 536 -17 b 319 -206 399 -153 350 -193 b 252 -225 289 -219 267 -225 b 231 -220 243 -225 237 -223 b 224 -218 229 -219 226 -218 b 210 -227 218 -218 213 -221 b 209 -233 210 -229 209 -231 b 218 -247 209 -239 212 -244 b 257 -255 229 -252 242 -255 b 758 220 360 -255 527 -97 l 759 219 b 804 122 777 197 793 164 b 821 -18 816 79 821 33 b 819 -92 821 -41 821 -66 b 817 -141 817 -109 817 -125 b 878 -316 817 -223 837 -281 b 964 -349 908 -338 937 -349 z m 850 229 b 779 243 826 229 802 233 l 777 245 l 781 248 b 935 423 818 296 869 355 b 1115 582 1000 492 1060 545 b 1244 638 1170 619 1213 638 b 1285 627 1259 638 1273 635 b 1322 559 1310 609 1322 587 b 1318 534 1322 551 1320 543 b 1153 346 1297 470 1242 408 b 882 231 1064 284 974 245 b 850 229 871 229 861 229 z "},"S":{"ha":1289,"x_min":0,"x_max":0,"o":"m 350 -329 b 483 -309 391 -329 436 -322 b 831 68 602 -269 718 -143 b 914 66 859 67 886 66 b 1077 75 969 66 1023 69 b 1300 138 1157 84 1232 105 b 1308 151 1305 140 1308 145 b 1306 159 1308 153 1308 156 b 1300 165 1305 162 1303 164 b 1293 166 1297 166 1295 166 b 1286 165 1291 166 1289 166 b 1096 108 1223 134 1160 115 b 920 96 1032 100 974 96 b 846 98 896 96 871 97 b 989 397 899 199 946 298 b 1088 606 1024 474 1057 544 b 1253 741 1186 656 1241 702 l 1253 746 b 1238 772 1253 756 1248 765 b 1206 783 1228 779 1217 783 b 1191 781 1201 783 1196 782 b 1065 628 1151 766 1109 715 b 629 480 949 565 804 515 b 479 467 581 471 532 467 b 398 470 453 467 426 467 b 191 559 317 477 248 507 b 180 564 187 563 184 564 b 170 559 176 564 173 563 b 165 549 166 556 165 553 b 170 538 165 545 166 542 b 348 445 230 482 290 451 b 478 437 406 439 450 437 b 646 453 535 437 591 442 b 1042 583 789 481 920 524 b 962 410 1017 531 990 473 b 813 100 917 307 867 203 b 607 115 743 104 674 109 b 340 133 490 127 401 133 b 197 120 288 133 240 128 b 6 -17 85 96 22 50 b 0 -62 2 -32 0 -47 b 75 -220 0 -116 25 -169 b 191 -297 105 -251 144 -276 b 350 -329 237 -318 290 -329 z m 345 -299 b 250 -286 311 -299 279 -295 b 97 -199 185 -267 134 -237 b 31 -62 52 -153 31 -108 b 35 -25 31 -50 32 -37 b 203 91 54 33 109 71 b 340 102 244 98 290 102 b 604 85 420 102 509 97 b 798 70 667 79 732 74 b 474 -280 691 -127 583 -243 b 345 -299 428 -293 385 -299 z m 1114 655 b 1206 752 1151 720 1181 752 b 1222 747 1211 752 1217 750 l 1223 745 b 1215 731 1223 743 1221 739 b 1185 702 1211 724 1200 715 b 1114 655 1169 689 1145 673 z "},"T":{"ha":918,"x_min":0,"x_max":0,"o":"m 222 -317 b 302 -306 249 -317 276 -313 b 522 -151 383 -281 456 -229 b 701 119 588 -74 647 16 b 846 423 753 221 802 323 b 963 665 888 520 927 601 l 994 663 b 1371 636 1137 645 1263 636 l 1408 637 b 1624 734 1524 639 1596 671 l 1624 740 b 1614 754 1624 746 1621 751 l 1609 755 b 1595 745 1602 755 1597 751 b 1499 678 1581 709 1549 687 b 1352 666 1451 670 1401 666 b 998 692 1274 666 1156 675 b 989 693 995 692 992 692 b 980 694 986 694 983 694 b 1037 757 1000 726 1019 747 b 1045 769 1042 760 1045 764 b 1031 785 1045 780 1040 785 b 1023 783 1028 785 1025 785 b 947 697 998 769 973 741 b 592 720 821 713 703 720 b 492 718 558 720 524 720 b 200 550 321 705 224 649 l 199 547 b 211 532 199 539 203 534 b 229 543 221 532 227 535 b 355 662 246 602 288 642 b 583 692 420 682 497 692 b 930 669 680 692 795 684 b 819 435 897 606 859 528 b 676 138 775 337 728 238 b 504 -127 624 37 567 -52 b 294 -277 441 -203 371 -253 b 221 -288 270 -284 245 -288 b 23 -218 157 -288 91 -264 b 16 -216 20 -217 18 -216 b 3 -221 9 -216 5 -218 b 0 -231 1 -224 0 -228 b 7 -243 0 -235 2 -240 b 222 -317 80 -293 152 -317 z "},"U":{"ha":1049,"x_min":0,"x_max":0,"o":"m 951 -378 b 961 -374 954 -378 958 -377 b 966 -364 964 -372 965 -368 b 951 -348 966 -354 961 -349 b 773 -158 833 -340 773 -277 b 873 200 773 -66 807 53 b 877 204 875 202 876 203 b 878 206 878 205 878 205 b 1086 480 959 301 1028 393 b 1195 691 1158 591 1195 661 b 1193 702 1195 696 1194 699 b 1176 714 1189 710 1183 714 b 1010 512 1153 714 1098 647 b 848 216 954 425 899 326 b 673 39 791 151 733 92 b 444 -81 579 -41 503 -81 b 415 -78 433 -81 424 -80 b 351 7 372 -67 351 -39 b 576 436 351 94 426 237 b 758 658 643 524 704 597 b 842 753 811 718 839 749 b 847 764 846 756 847 760 b 843 774 847 767 846 770 b 833 779 840 777 837 779 b 823 774 829 779 826 777 b 741 711 819 771 792 750 b 541 583 689 671 623 629 b 320 489 460 537 386 506 b 163 465 254 473 202 465 b 20 489 115 465 66 473 b 16 490 19 490 17 490 b 1 480 8 490 3 487 b 0 474 1 478 0 476 b 9 460 0 468 3 464 b 157 435 55 444 104 435 b 557 557 273 435 406 475 b 714 654 616 590 669 623 b 533 429 659 591 598 515 b 378 188 467 342 416 262 b 321 6 340 114 321 53 b 407 -107 321 -54 349 -92 b 444 -111 419 -110 431 -111 b 603 -53 493 -111 546 -92 b 810 130 674 -3 743 58 b 743 -154 765 17 743 -77 b 949 -378 743 -294 812 -368 z m 935 322 l 939 332 b 1158 665 1035 500 1107 610 b 1078 525 1144 633 1118 587 b 935 322 1039 463 991 395 z "},"V":{"ha":562,"x_min":0,"x_max":0,"o":"m 44 -378 b 58 -370 50 -378 54 -376 b 145 -194 60 -362 89 -304 b 372 184 201 -85 277 41 b 806 654 513 397 659 553 b 1063 747 890 711 976 743 b 1078 763 1074 748 1078 753 b 1063 778 1078 773 1072 778 l 1063 778 b 347 201 842 769 603 577 b 49 -317 225 20 125 -153 b 31 -55 37 -241 31 -154 b 45 235 31 33 35 130 b 186 716 74 503 121 664 b 212 724 193 721 201 724 b 247 708 221 724 233 718 b 256 705 250 706 252 705 b 267 710 260 705 264 707 b 271 720 270 713 271 716 b 265 732 271 724 269 728 b 212 754 245 747 228 754 b 169 741 195 754 181 750 b 39 412 111 698 67 587 b 0 -51 13 256 0 102 b 29 -367 0 -186 9 -292 b 44 -378 32 -374 37 -378 z "},"W":{"ha":1595,"x_min":0,"x_max":0,"o":"m 893 -336 b 1075 -243 948 -330 1008 -300 b 1232 -96 1141 -188 1193 -139 b 1535 317 1356 38 1457 176 b 1609 481 1568 375 1592 430 b 1633 606 1625 532 1633 574 b 1458 778 1633 714 1575 772 b 1447 774 1454 778 1451 777 b 1442 762 1444 771 1442 767 b 1457 747 1442 753 1447 748 b 1592 672 1528 744 1573 719 b 1603 609 1599 653 1603 632 b 1572 468 1603 568 1592 522 b 1427 197 1540 383 1491 293 b 1210 -75 1362 101 1289 10 b 891 -304 1064 -228 958 -304 b 878 -303 887 -304 882 -304 b 825 -193 843 -292 825 -256 b 839 -90 825 -163 829 -129 b 911 127 856 -19 880 54 b 996 315 941 201 970 264 b 1036 396 1021 366 1034 393 b 1039 404 1038 399 1039 401 b 1034 416 1039 410 1037 414 b 1024 419 1030 418 1027 419 b 1013 414 1019 419 1016 418 b 800 190 950 344 880 269 b 581 -9 721 111 648 44 b 437 -90 515 -63 467 -90 b 431 -88 433 -90 431 -90 b 430 -80 430 -87 430 -84 b 458 5 430 -64 439 -35 b 654 332 491 77 557 186 b 827 581 719 428 776 511 b 907 691 878 650 904 688 b 911 701 909 694 911 697 b 895 715 911 711 905 715 b 886 712 891 715 888 714 b 809 654 884 709 859 690 b 612 536 760 618 694 578 b 387 453 536 497 461 469 b 203 429 311 437 250 429 b 19 452 142 429 81 437 l 15 453 b 0 437 5 453 0 448 b 11 423 0 431 3 426 b 203 399 77 407 140 399 b 347 414 252 399 300 404 b 822 625 522 452 680 522 b 629 349 768 552 704 460 b 438 34 536 210 473 104 b 399 -79 412 -19 399 -57 b 403 -99 399 -88 401 -95 b 436 -121 409 -114 420 -121 b 511 -96 455 -121 480 -113 b 783 130 570 -64 660 12 b 960 313 852 199 911 260 b 876 121 934 259 905 195 b 813 -71 846 47 825 -17 b 795 -195 801 -124 795 -165 b 869 -332 795 -270 820 -316 b 893 -336 876 -334 884 -336 z "},"X":{"ha":1390,"x_min":0,"x_max":0,"o":"m 16 -352 b 312 -233 117 -343 215 -303 b 594 24 409 -162 503 -77 b 593 -18 593 9 593 -4 b 663 -232 593 -123 616 -194 b 760 -263 688 -253 721 -263 b 1406 138 893 -263 1109 -130 b 1411 149 1409 141 1411 144 b 1407 159 1411 153 1410 156 b 1395 164 1404 163 1400 164 b 1386 161 1392 164 1389 163 b 1017 -130 1235 26 1112 -71 b 823 -225 921 -189 857 -220 b 757 -232 791 -230 768 -232 b 682 -208 723 -232 698 -224 b 623 -18 642 -175 623 -112 b 627 60 623 5 624 32 b 797 256 685 125 742 190 b 1023 508 877 351 952 435 b 1209 632 1095 580 1156 621 b 1222 647 1218 633 1222 638 b 1217 658 1222 652 1221 655 b 1207 662 1214 661 1211 662 l 1205 662 b 1010 536 1147 650 1082 609 b 774 275 937 464 859 377 b 633 112 728 221 681 167 b 673 319 641 174 654 242 b 785 676 712 465 749 585 b 823 762 810 707 823 735 l 823 771 b 821 778 823 773 822 776 b 817 783 819 780 818 781 b 812 785 814 783 813 784 b 808 785 812 785 810 785 b 793 777 802 785 798 783 b 759 692 789 768 777 741 b 444 492 694 615 589 548 b 269 458 382 469 324 458 b 180 471 239 458 210 463 b 70 559 136 484 99 513 b 56 566 66 564 62 566 b 49 564 54 566 52 566 b 43 557 45 562 43 559 b 41 552 42 555 41 553 b 44 544 41 549 43 547 b 267 429 92 467 166 429 b 454 463 321 429 383 440 b 734 623 562 502 654 555 b 644 325 703 538 673 439 b 597 73 621 229 605 145 b 311 -196 505 -33 410 -122 b 14 -321 213 -271 114 -313 b 0 -338 5 -323 0 -328 b 5 -348 1 -342 2 -345 b 16 -352 8 -351 12 -352 z "},"Y":{"ha":1185,"x_min":0,"x_max":0,"o":"m 331 -370 b 408 -357 354 -370 380 -366 b 774 11 505 -324 627 -201 b 829 9 793 9 811 9 b 1000 27 886 9 943 15 b 1204 147 1073 43 1141 83 b 1208 157 1206 150 1208 153 b 1203 168 1208 161 1206 165 b 1193 173 1200 172 1196 173 b 1182 168 1189 172 1185 171 b 1010 61 1126 111 1069 75 b 838 39 951 47 894 39 b 795 41 824 39 810 40 b 1038 436 890 182 971 315 b 1154 651 1116 575 1154 647 b 1146 665 1154 658 1152 662 b 1139 667 1143 666 1141 667 b 1126 660 1134 667 1129 665 b 987 469 1093 609 1047 545 b 812 281 928 393 869 330 b 671 206 756 231 709 206 b 607 284 629 206 607 232 b 633 396 607 316 616 353 b 805 707 671 493 728 597 b 837 757 826 730 837 747 b 835 764 837 759 836 761 b 829 769 834 766 832 768 b 821 772 826 771 824 772 b 810 766 817 772 812 770 b 781 725 806 762 797 749 b 596 585 743 685 682 639 b 227 452 456 503 334 459 l 211 452 b 28 557 121 452 61 487 b 14 566 26 564 21 566 b 1 558 7 566 3 564 b 0 551 0 555 0 553 l 1 545 b 212 422 39 463 110 422 l 229 422 b 444 475 302 428 374 446 b 721 633 549 521 642 573 b 619 441 681 570 647 506 b 577 282 591 377 577 324 b 634 182 577 231 596 198 b 670 176 645 178 657 176 b 1014 454 752 176 867 269 b 759 42 943 328 859 190 b 707 45 742 43 724 43 l 707 45 b 577 49 664 47 621 49 b 385 25 505 49 441 41 b 226 -87 307 -1 254 -39 b 183 -218 197 -136 183 -179 b 237 -339 183 -269 201 -310 b 331 -370 260 -359 291 -369 z m 330 -339 b 219 -261 274 -339 237 -313 b 214 -220 215 -248 214 -235 b 241 -120 214 -189 222 -156 b 394 -3 269 -68 319 -30 b 577 19 453 12 514 19 b 739 13 618 19 671 17 b 399 -328 601 -184 488 -298 b 330 -339 374 -335 351 -339 z "},"Z":{"ha":1064,"x_min":0,"x_max":0,"o":"m 125 -341 b 374 -260 206 -341 290 -314 b 588 -74 459 -207 530 -145 b 683 132 651 6 683 75 b 682 153 683 139 682 146 b 817 161 724 159 770 161 b 1064 140 894 161 976 154 l 1067 140 b 1082 153 1075 140 1080 144 l 1082 155 b 1069 170 1082 163 1078 168 b 817 191 979 184 895 191 b 673 182 766 191 718 188 b 585 268 652 227 622 255 b 477 288 547 281 511 288 l 465 288 b 718 437 538 323 623 373 b 909 640 812 502 876 569 b 919 687 916 659 919 674 b 914 711 919 696 918 705 b 790 767 897 749 856 767 b 653 744 751 767 705 760 b 387 598 551 713 462 665 b 382 588 384 595 382 592 b 387 577 382 584 384 581 b 397 572 390 574 393 572 b 408 576 401 572 405 574 b 627 706 481 642 555 685 b 791 737 701 727 755 737 b 880 711 834 737 864 728 b 889 684 886 705 889 696 b 882 651 889 675 886 665 b 774 520 863 607 827 564 b 603 399 722 476 665 436 b 444 311 541 363 488 334 b 372 275 399 289 375 277 b 364 269 368 273 366 271 b 363 262 363 267 363 264 b 370 249 363 256 365 252 b 378 247 373 248 376 247 b 382 248 380 247 380 247 b 411 252 382 248 393 250 b 471 256 429 255 449 256 b 576 238 510 256 545 250 b 641 178 604 227 625 207 b 269 58 490 155 366 115 b 61 -109 172 2 102 -54 b 0 -247 20 -161 0 -207 b 33 -317 0 -276 11 -300 b 125 -341 52 -333 83 -341 z m 123 -311 b 35 -273 75 -311 45 -298 b 31 -247 32 -264 31 -256 b 85 -127 31 -214 48 -174 b 287 34 125 -75 192 -21 b 652 150 382 89 503 127 b 653 132 652 144 653 138 b 565 -55 653 82 624 20 b 353 -237 505 -128 435 -189 b 123 -311 273 -286 195 -311 z "},"[":{"ha":505,"x_min":0,"x_max":0,"o":""},"\\":{"ha":252,"x_min":0,"x_max":0,"o":""},"]":{"ha":700,"x_min":0,"x_max":0,"o":""},"^":{"ha":236,"x_min":0,"x_max":0,"o":""},"_":{"ha":465,"x_min":0,"x_max":0,"o":""},"`":{"ha":111,"x_min":0,"x_max":0,"o":""},"a":{"ha":374,"x_min":0,"x_max":0,"o":"m 180 45 b 307 78 224 47 267 58 b 397 140 347 98 377 119 b 401 152 399 144 401 148 b 396 162 400 155 399 159 b 385 166 393 165 389 166 b 374 161 381 165 378 164 b 283 100 352 136 321 116 b 186 76 244 84 212 76 b 117 103 146 76 123 85 b 115 119 116 108 115 113 b 134 178 115 134 121 154 l 134 182 b 119 197 134 190 129 195 b 104 187 113 197 108 194 l 94 174 b 63 186 85 182 75 186 b 36 181 55 186 45 184 b -18 142 14 172 -4 159 b -40 90 -33 123 -40 106 b -11 58 -39 69 -28 58 b 85 121 12 58 43 79 b 124 56 85 90 98 68 b 180 45 141 49 160 45 z m -9 87 l -9 92 b 7 124 -9 100 -4 111 b 47 153 18 137 31 146 b 62 157 53 155 58 157 b 74 153 68 157 72 155 b -9 87 35 112 7 90 z "},"b":{"ha":371,"x_min":0,"x_max":0,"o":"m 26 -1 b 73 22 40 -1 56 7 b 115 77 90 36 104 54 b 155 75 127 75 140 75 b 262 85 186 75 222 78 b 391 141 320 94 363 113 b 395 150 393 144 395 146 b 390 162 395 155 393 159 b 378 166 387 165 382 166 b 368 161 374 165 371 164 b 271 117 347 140 315 125 b 155 105 227 109 189 105 b 127 106 145 105 136 105 b 130 125 129 112 130 119 b 98 168 130 147 119 161 b 85 170 94 170 90 170 b 13 132 64 170 40 157 b 30 177 18 146 24 161 b 241 322 109 208 180 256 b 325 483 297 384 325 437 b 271 530 321 512 303 528 b 170 477 237 530 203 513 b 5 195 110 412 55 318 b -33 77 -15 145 -28 106 l -33 75 b -32 68 -33 72 -33 70 b -26 62 -31 66 -28 64 b -19 60 -24 61 -21 60 b -7 66 -14 60 -10 62 b 42 117 7 85 24 101 b 86 140 60 132 75 140 b 99 124 95 140 99 134 b 96 109 99 119 98 115 b 28 87 69 109 46 101 b -7 32 5 68 -7 50 b 15 1 -7 18 1 7 b 26 -1 18 0 22 -1 z m 26 29 b 23 31 24 29 24 30 b 28 45 23 34 24 39 b 81 77 38 60 56 71 b 52 44 73 64 63 54 b 26 29 41 34 33 29 z m 46 217 b 113 349 66 261 88 305 b 192 457 138 391 165 428 b 268 500 218 486 244 500 b 294 477 285 500 294 492 b 230 355 294 447 273 406 b 46 217 185 301 124 255 z "},"c":{"ha":315,"x_min":0,"x_max":0,"o":"m 87 47 b 226 75 131 48 177 57 b 336 144 275 92 311 115 b 339 153 338 147 339 150 b 333 165 339 158 337 162 b 324 168 330 168 328 168 b 312 163 319 168 315 166 b 214 102 291 138 258 118 b 87 78 169 86 127 78 b 14 119 38 78 14 92 b 28 160 14 132 19 145 b 56 180 39 174 48 180 b 64 165 59 180 62 176 b 80 153 66 157 71 153 b 91 158 85 153 88 155 b 94 168 93 161 94 165 l 94 171 b 56 211 87 197 75 211 b 4 177 39 211 21 199 b -16 119 -9 159 -16 139 b 73 47 -16 75 14 52 z "},"d":{"ha":379,"x_min":0,"x_max":0,"o":"m 195 41 b 285 64 224 41 254 49 b 361 110 315 79 341 94 b 397 138 382 125 393 135 b 401 148 399 140 401 144 b 384 164 401 159 395 164 b 377 161 381 164 379 163 b 355 144 376 160 368 154 b 308 113 343 135 327 124 b 249 84 289 100 269 91 b 195 73 229 77 211 73 b 121 154 149 73 123 100 b 205 231 138 168 167 194 b 312 347 244 267 279 306 b 361 452 345 387 361 422 b 334 493 361 470 351 484 b 304 501 324 498 314 501 b 209 444 275 501 243 482 b 133 327 180 413 155 374 b 92 187 111 279 96 233 b 62 193 82 191 73 193 b -1 163 41 193 20 183 b -24 108 -16 146 -24 128 b 18 54 -24 72 -10 54 b 96 116 43 54 68 75 b 179 43 107 73 135 49 z m 123 198 b 162 317 130 237 143 276 b 231 423 182 358 205 393 b 262 453 239 432 249 441 b 304 469 277 464 290 469 b 330 451 320 469 329 463 b 263 336 330 423 307 385 b 123 198 220 287 173 241 z m 18 85 b 7 106 11 85 7 92 b 21 142 7 119 12 131 b 63 162 37 155 52 162 b 83 157 71 162 78 160 b 18 85 55 109 33 85 z "},"e":{"ha":298,"x_min":0,"x_max":0,"o":"m 99 56 b 311 138 153 56 224 83 b 319 151 316 141 319 146 b 302 166 319 161 313 166 b 295 163 300 166 298 165 b 142 89 219 115 168 90 b 95 87 116 87 100 87 b 25 107 59 87 36 94 b 61 137 41 115 52 124 b 74 172 70 149 74 161 b 39 208 74 194 62 205 b -2 178 23 208 9 198 b -14 146 -9 165 -13 154 b -14 132 -14 138 -14 133 b 92 56 -14 85 22 60 z m 17 136 b 22 158 18 144 19 151 b 31 173 24 165 27 170 b 37 178 34 176 36 178 b 44 173 41 178 44 176 b 37 155 44 168 42 162 b 17 136 33 148 26 142 z "},"f":{"ha":298,"x_min":0,"x_max":0,"o":"m -98 -249 b -31 -210 -75 -248 -54 -235 b 12 -123 -6 -180 8 -151 b 19 -63 16 -94 19 -75 b -6 52 19 -27 10 12 b 72 41 15 45 41 41 b 132 45 90 41 110 43 b 314 140 190 52 251 83 b 319 151 317 143 318 146 b 315 161 319 155 317 158 b 304 166 311 164 308 165 b 293 161 300 166 296 165 b 172 85 250 121 210 96 b 78 70 136 75 104 70 b 54 71 70 70 62 71 b -17 86 22 75 -1 80 b 84 215 17 137 51 180 b 164 275 121 254 149 275 b 168 271 165 275 167 273 b 182 262 170 264 175 262 b 195 269 188 262 192 264 b 197 276 196 272 197 274 b 195 282 197 278 196 280 b 163 304 189 297 178 304 b 64 238 138 304 104 282 b -31 121 29 201 -3 162 b -151 -168 -111 -2 -151 -98 b -98 -249 -151 -222 -134 -249 z m -98 -219 b -121 -168 -113 -219 -121 -201 b -39 51 -121 -112 -94 -39 b -11 -63 -20 9 -11 -28 b -14 -96 -11 -75 -12 -85 b -54 -189 -23 -139 -36 -170 b -98 -219 -72 -209 -87 -219 z "},"g":{"ha":372,"x_min":0,"x_max":0,"o":"m -277 -325 b -201 -311 -256 -325 -231 -320 b 73 -12 -99 -274 -7 -174 b 389 141 215 18 321 70 b 393 150 391 144 393 146 b 388 162 393 155 391 159 b 377 166 385 165 380 166 b 366 161 373 165 370 164 b 91 24 307 99 215 54 b 151 167 117 79 137 127 b 175 240 168 212 175 237 b 160 254 175 248 170 253 b 146 243 153 254 149 251 l 134 207 b 97 222 120 216 108 222 b 79 223 86 223 80 223 b 18 201 60 223 39 216 b -16 130 -5 182 -16 159 b -14 113 -16 124 -16 119 b 22 75 -9 92 3 79 b 31 74 25 75 28 74 b 95 106 46 74 68 85 b 52 14 82 77 68 47 b -202 -35 -28 -5 -113 -21 b -316 -92 -250 -45 -288 -64 b -380 -228 -358 -134 -380 -180 b -323 -316 -380 -270 -361 -300 b -277 -325 -311 -322 -296 -325 z m -277 -294 b -332 -276 -300 -294 -319 -288 b -349 -227 -344 -263 -349 -247 b -295 -113 -349 -188 -332 -150 b -197 -65 -271 -89 -239 -73 b 34 -22 -115 -52 -39 -37 b -210 -282 -41 -164 -122 -251 b -277 -294 -236 -290 -258 -294 z m 30 104 b 19 111 25 104 22 106 b 14 130 16 117 14 123 b 35 176 14 150 21 165 b 80 193 52 188 67 193 b 118 180 97 193 109 189 b 30 104 82 130 52 104 z "},"h":{"ha":342,"x_min":0,"x_max":0,"o":"m -35 24 b -22 31 -30 24 -26 26 b 37 104 -3 58 16 83 b 84 136 58 125 73 136 b 94 109 90 136 94 127 l 92 86 b 95 58 92 77 94 67 b 141 26 100 37 115 26 b 219 46 161 26 187 33 b 362 140 264 65 313 96 b 367 151 366 142 367 146 b 363 161 367 155 366 158 b 353 166 360 164 357 165 b 342 162 349 166 345 165 b 216 77 293 120 251 92 b 140 56 180 63 155 56 b 128 58 136 56 132 57 b 123 88 124 60 123 70 l 123 109 b 120 139 123 119 122 130 b 83 166 116 155 104 164 b 9 119 64 166 39 151 b 37 180 17 138 26 158 b 139 254 55 192 90 216 b 281 376 189 290 236 331 b 352 496 325 420 349 460 b 324 544 351 516 342 532 b 292 554 315 551 304 554 b 259 546 282 554 271 551 b 125 404 216 523 171 475 b 7 188 79 332 40 260 b -50 39 -31 106 -50 57 b -40 25 -50 32 -46 28 b -35 24 -38 24 -37 24 z m 63 235 b 166 410 94 298 129 356 b 271 518 203 465 238 501 b 292 524 279 522 286 524 b 308 519 299 524 304 522 b 321 496 317 513 321 505 b 230 368 317 461 287 418 b 63 235 174 317 118 273 z "},"i":{"ha":290,"x_min":0,"x_max":0,"o":"m 60 47 b 181 72 96 47 136 55 b 304 139 225 88 267 111 b 310 151 308 142 310 146 b 294 166 310 161 304 166 b 286 163 291 166 289 165 b 60 77 208 105 133 77 b 5 100 23 77 5 85 b 14 126 5 108 8 117 b 36 155 22 138 29 148 b 41 165 39 158 41 161 b 36 176 41 169 39 172 b 25 180 33 179 29 180 b 1 159 20 180 12 174 b -25 100 -17 138 -25 118 b -12 67 -25 87 -21 77 b 60 47 2 54 26 47 z m 62 202 b 76 216 71 203 75 208 b 83 222 77 216 79 218 b 89 234 87 225 89 229 b 85 244 89 237 87 241 b 73 250 83 248 79 250 b 52 233 66 250 58 244 b 46 217 47 227 46 222 b 62 202 46 207 52 202 z "},"j":{"ha":260,"x_min":0,"x_max":0,"o":"m -412 -365 b -336 -351 -391 -365 -366 -360 b -62 -52 -234 -314 -142 -214 b 282 150 80 -22 195 46 b 286 159 284 153 286 155 b 281 171 286 164 284 168 b 270 175 277 174 273 175 b 259 170 266 174 262 173 b -44 -16 181 75 80 14 b 16 127 -18 39 2 87 b 40 200 32 172 40 196 b 25 214 40 208 35 212 b 11 203 18 214 14 211 b -14 132 10 200 2 176 b -83 -26 -30 88 -53 35 b -337 -75 -163 -45 -248 -61 b -451 -132 -385 -85 -423 -104 b -515 -268 -493 -174 -515 -220 b -458 -356 -515 -310 -496 -340 b -412 -365 -446 -362 -431 -365 z m -412 -334 b -467 -316 -435 -334 -454 -328 b -484 -267 -479 -303 -484 -287 b -430 -153 -484 -228 -467 -190 b -332 -105 -406 -129 -374 -113 b -101 -62 -250 -92 -174 -77 b -345 -322 -176 -204 -257 -291 b -412 -334 -371 -330 -393 -334 z m 43 250 b 56 263 51 250 55 255 b 63 269 57 264 59 266 b 69 281 67 273 69 277 b 66 291 69 284 68 288 b 54 297 63 295 59 297 b 45 294 51 297 48 296 b 26 264 33 285 26 275 b 43 250 26 254 32 250 z "},"k":{"ha":302,"x_min":0,"x_max":0,"o":"m -37 1 b -22 14 -28 1 -22 5 b -8 60 -20 23 -16 38 b 94 37 22 45 56 37 b 317 140 168 37 243 71 b 321 151 320 143 321 146 b 307 166 321 160 317 165 b 296 161 302 166 299 165 b 160 75 237 109 192 80 b 87 66 127 69 103 66 b 33 75 66 66 48 69 b 121 136 92 92 121 112 b 116 153 121 141 119 147 b 84 170 109 164 98 170 b 24 141 67 170 47 160 l 39 176 b 139 244 56 186 90 209 b 281 363 189 279 236 319 b 358 486 327 407 353 448 l 358 490 b 334 539 358 509 350 526 b 292 555 321 550 307 555 b 263 549 283 555 273 553 b 124 401 218 527 171 478 b 4 172 77 325 37 248 b -52 16 -33 85 -52 33 b -37 1 -52 6 -47 1 z m 28 106 b 84 140 54 128 73 140 b 91 136 87 140 90 138 b 28 106 88 127 68 117 z m 63 228 b 167 412 94 294 129 355 b 275 521 204 469 240 505 b 292 525 281 524 287 525 b 317 515 301 525 309 522 b 328 491 324 509 328 501 l 328 488 b 231 357 321 451 288 407 b 63 228 173 306 117 263 z "},"l":{"ha":347,"x_min":0,"x_max":0,"o":"m 60 -53 b 182 -8 98 -51 138 -36 b 300 79 227 20 265 49 b 363 138 334 110 355 130 b 368 149 366 142 368 145 b 363 159 368 153 366 156 b 352 164 359 163 356 164 b 342 159 349 164 345 163 b 258 85 322 140 294 115 b 151 9 222 55 187 30 b 60 -22 115 -12 85 -22 b 9 55 26 -22 9 3 b 22 140 9 79 14 107 b 251 309 100 177 176 233 b 367 501 326 384 364 448 b 320 555 365 528 349 546 b 300 557 313 556 307 557 b 157 464 258 557 211 526 b -5 155 83 372 30 269 b -21 56 -16 117 -21 84 b 45 -52 -21 -8 1 -43 b 60 -53 50 -52 55 -53 z m 34 179 b 180 444 69 279 118 367 b 300 527 229 499 268 527 b 312 526 304 527 308 526 b 332 513 322 522 329 519 b 336 499 335 509 336 504 b 239 338 334 458 302 405 b 34 179 176 273 107 219 z "},"m":{"ha":385,"x_min":0,"x_max":0,"o":"m 214 51 b 305 73 239 51 270 58 b 405 140 340 88 373 111 b 410 151 408 143 409 146 b 406 161 410 155 408 158 b 395 166 402 164 399 165 b 384 161 391 166 387 165 b 212 80 323 107 266 80 b 199 83 205 80 201 81 b 189 100 193 88 189 94 b 194 123 189 107 191 115 b 199 146 197 132 199 140 b 193 161 199 151 197 156 b 170 169 187 166 179 169 b 132 157 159 169 146 165 b 138 181 136 166 138 174 b 115 205 138 195 130 203 b 34 163 96 205 68 191 b 56 203 49 187 56 200 b 49 216 56 208 54 212 b 41 218 46 218 43 218 b 28 211 36 218 32 216 b -58 70 -29 119 -58 72 l -58 67 b -43 55 -57 59 -52 55 b -32 59 -39 55 -35 56 b 51 138 -3 90 25 116 b 106 175 76 159 95 172 b 64 113 102 162 88 141 b 60 103 62 111 60 107 b 64 94 60 100 62 96 b 76 89 67 90 71 89 b 85 92 79 89 82 90 b 168 139 121 119 149 135 b 159 98 162 125 159 111 b 179 60 159 85 166 73 b 214 51 186 54 199 51 z "},"n":{"ha":309,"x_min":0,"x_max":0,"o":"m -34 64 b -24 68 -31 64 -27 65 b 51 133 3 94 27 115 b 100 161 74 150 90 159 b 95 143 100 158 98 152 b 88 109 91 131 88 119 b 96 87 88 102 91 94 b 119 75 103 80 111 75 b 138 73 127 73 133 73 b 153 74 143 73 148 73 b 299 123 209 81 258 98 b 328 145 318 135 328 142 b 329 151 329 148 329 150 b 313 166 329 161 323 166 b 304 163 310 166 307 165 b 284 150 304 162 297 158 b 229 123 271 141 252 132 b 149 104 205 115 179 108 l 136 103 b 119 111 124 103 119 106 b 124 133 119 115 121 122 b 130 166 128 144 130 155 b 113 189 130 176 125 184 b 102 191 110 191 106 191 b 38 161 87 191 66 181 l 65 202 b 68 212 67 205 68 208 b 61 223 68 216 66 220 b 53 226 58 224 56 226 b 40 219 47 226 43 223 l -47 87 b -49 79 -48 85 -49 81 b -44 68 -49 75 -47 71 b -34 64 -41 65 -37 64 z "},"o":{"ha":278,"x_min":0,"x_max":0,"o":"m 14 57 b 63 89 31 57 47 68 b 80 124 71 100 77 112 b 140 99 100 110 120 101 b 177 96 160 97 172 96 b 290 138 210 96 248 111 b 297 152 294 142 297 146 b 293 161 297 154 296 157 b 281 166 291 164 287 166 b 273 163 278 166 276 165 b 198 127 237 139 212 127 b 175 127 184 127 176 127 b 111 141 149 127 128 132 b 77 164 94 151 82 158 b 83 178 81 168 83 172 b 75 191 83 184 81 188 b 56 194 68 193 62 194 b 24 182 45 194 35 191 b -16 134 7 170 -6 154 b -25 98 -22 121 -25 109 b -2 61 -25 82 -17 69 b 14 57 3 58 9 57 z m 15 87 b 5 98 9 87 5 91 b 11 121 5 106 7 113 b 48 161 20 140 33 154 l 47 157 b 51 147 47 153 48 150 b 52 142 52 147 52 145 b 32 98 52 128 45 114 b 15 87 25 91 19 87 z "},"p":{"ha":298,"x_min":0,"x_max":0,"o":"m -199 -309 b -189 -304 -195 -309 -192 -307 b -183 -294 -185 -302 -183 -298 b -186 -286 -183 -290 -184 -288 b -189 -267 -189 -283 -189 -277 b -146 -142 -189 -242 -175 -201 b -38 52 -120 -87 -84 -22 b 71 31 -17 41 19 34 b 313 140 155 31 236 67 b 317 151 316 143 317 146 b 303 166 317 160 313 165 b 292 161 299 166 296 165 b 162 76 242 115 199 87 b 70 59 125 64 94 59 b 40 62 60 59 50 60 b 111 98 67 71 91 83 b 154 165 140 121 154 143 b 129 203 154 181 146 194 b 102 209 120 207 111 209 b 52 192 85 209 69 203 b 81 239 72 220 81 237 b 63 254 81 250 75 254 b 54 248 60 254 56 251 b -49 92 45 239 11 187 b -65 65 -60 77 -65 68 b -192 -168 -127 -37 -170 -115 b -219 -249 -210 -211 -218 -238 l -219 -269 b -199 -309 -219 -296 -212 -309 z m -17 83 b 47 151 3 110 24 132 b 102 179 68 170 87 179 b 115 176 106 179 111 178 b 124 164 121 174 124 170 b 123 157 124 162 124 160 b 72 108 115 140 98 124 b -17 83 45 92 15 83 z "},"q":{"ha":355,"x_min":0,"x_max":0,"o":"m -80 -321 b -18 -279 -64 -321 -44 -307 b 52 -158 12 -244 35 -203 b 77 -47 69 -113 77 -76 b 71 0 77 -31 75 -15 b 208 35 103 3 149 14 b 373 140 267 54 322 90 b 376 150 375 144 376 146 b 372 161 376 155 375 159 b 361 166 368 165 365 166 b 351 161 357 165 353 164 b 199 64 305 115 254 82 b 70 31 144 45 101 34 b 200 201 122 103 165 160 b 203 212 202 205 203 208 b 199 222 203 216 201 219 b 188 226 195 224 192 226 b 178 222 184 226 181 224 b 138 185 165 209 151 197 b 87 208 125 201 108 208 b 60 204 79 208 70 207 b 5 169 37 197 20 186 b -16 115 -9 152 -16 134 b 15 77 -16 90 -6 77 b 89 109 35 77 60 87 b -53 -100 39 43 -8 -26 b -119 -276 -97 -174 -119 -233 b -98 -315 -119 -292 -113 -306 b -80 -321 -94 -319 -87 -321 z m 18 105 l 15 106 l 14 114 b 28 149 14 127 19 138 b 86 178 45 168 64 178 b 115 165 96 178 105 174 b 18 105 64 125 32 105 z m -80 -292 b -86 -286 -81 -292 -83 -290 b -90 -271 -88 -282 -90 -277 b 42 -9 -90 -222 -46 -136 b 48 -46 46 -20 48 -33 b 31 -130 48 -70 43 -98 b -41 -260 12 -180 -12 -224 b -80 -292 -59 -281 -72 -292 z "},"r":{"ha":355,"x_min":0,"x_max":0,"o":"m 87 -11 b 233 43 124 -8 173 10 b 373 140 292 77 339 109 b 378 151 376 143 378 146 b 363 166 378 160 373 165 b 352 161 359 166 355 165 b 216 68 318 130 273 99 b 85 19 160 37 116 21 l 77 21 b 75 30 75 23 75 26 b 84 63 75 38 77 49 b 96 99 90 77 94 89 b 97 117 97 109 97 115 b 76 162 97 132 90 147 b 71 176 73 166 71 170 b 102 237 71 192 81 212 b 109 251 106 243 109 248 b 104 263 109 256 107 260 b 94 267 100 265 98 267 b 83 262 90 267 85 265 b 0 160 81 260 53 226 b -3 151 -2 157 -3 155 b 1 140 -3 146 -2 142 b 12 136 5 137 8 136 b 24 141 16 136 20 138 l 42 164 b 56 140 43 155 48 147 b 66 116 63 133 66 125 b 55 73 66 104 62 90 b 43 29 47 55 43 41 b 54 1 43 19 47 10 b 87 -11 62 -7 73 -11 z "},"s":{"ha":286,"x_min":0,"x_max":0,"o":"m -105 -116 b -51 -97 -90 -116 -71 -110 b 9 -13 -21 -75 -1 -47 b 315 141 155 13 257 64 b 317 151 317 144 317 147 b 312 161 317 155 315 159 b 302 165 309 164 305 165 b 290 161 297 165 293 164 b 18 20 239 91 149 44 b 28 117 24 61 28 94 l 28 127 l 30 130 b 92 218 71 161 92 190 b 71 253 92 235 85 247 b 56 256 66 255 61 256 b 26 245 46 256 37 253 b -2 142 7 227 -2 193 l -2 129 b -16 14 -3 91 -7 53 l -48 9 b -159 -60 -113 -1 -151 -24 l -160 -71 b -140 -106 -159 -85 -153 -97 b -105 -116 -131 -113 -119 -116 z m 31 170 b 60 226 33 208 43 226 b 62 219 62 225 62 222 b 31 170 62 205 52 189 z m -97 -85 l -108 -85 b -130 -71 -123 -85 -130 -81 b -26 -18 -130 -47 -96 -29 b -68 -72 -35 -41 -49 -58 b -97 -85 -81 -81 -91 -85 z "},"t":{"ha":313,"x_min":0,"x_max":0,"o":"m 49 -59 b 164 -12 85 -57 123 -41 b 273 80 205 17 241 48 b 332 141 305 112 325 132 b 336 150 334 144 336 146 b 331 161 336 155 334 159 b 320 166 328 165 323 166 b 309 161 316 165 313 164 b 235 85 292 141 267 116 b 136 5 203 55 170 28 b 46 -29 101 -18 71 -29 b 9 -5 31 -29 18 -21 b 1 37 3 7 1 20 b 31 155 1 68 11 108 b 139 366 60 227 96 297 b 264 356 184 359 227 356 b 361 392 308 356 340 368 b 365 401 363 395 365 398 b 360 412 365 406 363 410 b 351 416 357 415 354 416 b 338 411 346 416 342 414 b 290 387 323 395 307 387 l 259 387 b 157 395 228 387 193 389 b 219 489 180 433 201 465 b 222 497 220 492 222 494 b 206 513 222 507 216 513 b 194 507 201 513 197 511 b 123 399 183 492 159 456 b 10 408 84 405 46 408 b -106 378 -39 408 -77 398 b -111 366 -110 375 -111 371 b -109 357 -111 362 -111 360 b -96 351 -105 353 -101 351 b -87 354 -93 351 -90 352 b -28 377 -66 369 -46 376 b 4 378 -9 378 1 378 b 106 370 36 378 70 375 b 7 179 64 303 31 239 b -28 38 -17 119 -28 72 b -17 -20 -28 16 -25 -3 b 49 -59 -2 -46 20 -59 z "},"u":{"ha":335,"x_min":0,"x_max":0,"o":"m 138 48 b 305 111 184 50 240 71 b 355 144 337 130 354 142 b 355 150 355 147 355 149 b 352 160 355 153 354 157 b 340 166 349 164 345 166 b 332 163 337 166 334 165 b 227 104 299 140 264 121 b 140 78 191 87 161 78 b 109 94 122 78 111 83 b 107 104 108 97 107 100 b 115 140 107 115 110 126 b 138 186 123 158 130 173 b 141 194 140 189 141 191 b 134 207 140 199 138 203 b 127 210 132 208 129 210 b 114 203 121 210 117 208 b 60 142 99 184 81 163 b 2 101 38 120 19 106 b 33 157 6 115 16 134 b 36 166 35 159 36 163 b 30 178 36 171 34 175 b 21 181 27 180 24 181 b 9 175 16 181 12 179 b -28 98 -16 142 -28 116 b -17 75 -28 87 -24 79 b -4 71 -14 72 -9 71 b 79 118 22 73 50 89 b 77 102 77 113 77 107 b 106 54 77 79 87 64 b 138 48 116 50 127 48 z "},"v":{"ha":287,"x_min":0,"x_max":0,"o":"m 20 58 b 99 170 35 58 62 95 b 117 148 103 162 109 155 b 202 123 138 132 166 123 b 293 136 229 123 258 127 b 304 151 300 138 304 143 b 290 165 304 161 300 165 l 288 165 b 202 153 252 157 224 153 b 185 154 196 153 191 153 b 117 211 140 160 117 179 b 115 220 117 214 117 218 b 103 227 111 224 108 227 b 89 218 97 227 92 224 b 23 98 62 161 40 121 b 30 186 23 124 25 153 b 15 202 30 197 25 202 b -7 110 0 202 -7 172 b 17 58 -7 75 1 58 z "},"w":{"ha":374,"x_min":0,"x_max":0,"o":"m 78 52 b 180 175 111 55 144 96 b 208 136 184 161 194 148 b 279 115 227 122 250 115 b 382 136 309 115 343 122 b 393 151 389 140 393 144 b 378 165 393 161 388 165 l 372 165 b 280 145 336 152 305 145 b 211 180 245 145 222 157 b 201 220 204 193 201 206 b 201 227 201 224 201 227 b 186 244 201 237 196 243 b 172 234 179 244 175 241 b 120 127 155 193 138 157 b 77 82 102 97 87 82 b 76 90 77 84 76 86 b 109 183 76 109 87 140 b 111 191 110 186 111 189 b 102 203 111 196 108 200 b 95 205 100 205 98 205 b 82 197 90 205 85 203 b 47 146 72 178 60 161 b 15 122 34 131 23 123 l 15 125 b 40 195 15 140 23 163 b 42 201 41 197 42 199 b 35 215 42 208 39 212 b 26 217 32 216 29 217 b -6 166 17 217 6 200 b -16 127 -12 150 -16 137 b 14 92 -16 104 -5 93 b 47 105 26 92 37 96 b 46 90 47 100 46 94 b 77 52 46 66 56 53 z "},"x":{"ha":370,"x_min":0,"x_max":0,"o":"m -36 21 b 41 85 -22 21 3 43 b 135 53 64 64 96 53 b 378 138 198 53 279 81 b 385 151 382 140 385 145 b 382 159 385 153 384 156 b 376 165 380 162 378 164 b 370 166 373 165 371 166 b 362 164 368 166 365 165 b 136 83 267 110 192 83 b 61 108 102 83 77 92 b 159 196 110 162 142 191 b 172 212 168 199 172 204 b 166 222 172 216 170 220 b 157 227 163 225 159 227 b 42 132 133 224 94 192 b 24 197 31 152 24 174 l 24 210 b 7 226 24 220 18 226 b -6 206 -2 226 -6 220 b 21 109 -6 170 3 137 b -40 51 -10 74 -31 55 b -51 36 -47 49 -51 43 b -36 21 -50 26 -45 21 z "},"y":{"ha":300,"x_min":0,"x_max":0,"o":"m -221 -302 b -178 -295 -208 -302 -193 -300 b 61 -23 -99 -266 -19 -176 l 81 16 b 320 142 191 42 271 84 b 323 151 322 144 323 147 b 317 163 323 155 321 159 b 309 166 315 165 313 166 b 296 160 304 166 300 164 b 100 52 256 113 190 77 b 168 229 145 148 168 207 b 152 243 168 239 163 243 b 138 235 146 243 141 241 b 87 155 124 206 107 180 b 38 118 68 130 52 118 b 25 136 29 118 25 124 b 47 205 25 154 33 177 b 50 212 49 208 50 210 b 34 227 50 222 44 227 b 21 220 28 227 24 224 b -5 137 3 189 -5 161 b 28 89 -5 111 5 94 b 38 88 31 88 35 88 b 98 121 58 88 78 99 b 60 41 87 96 75 70 l -101 -1 b -311 -171 -216 -34 -286 -90 b -315 -205 -313 -183 -315 -195 b -286 -277 -315 -233 -305 -257 b -221 -302 -269 -294 -247 -302 z m -221 -271 b -266 -255 -239 -271 -254 -266 b -285 -205 -279 -242 -285 -226 b -281 -178 -285 -197 -283 -188 b -94 -31 -260 -109 -197 -60 l 41 5 b -187 -266 -39 -150 -115 -240 b -221 -271 -199 -269 -211 -271 z "},"z":{"ha":340,"x_min":0,"x_max":0,"o":"m -251 -351 b 45 -151 -166 -347 -68 -280 b 130 -1 96 -92 124 -41 b 357 140 222 18 298 65 b 362 152 361 144 362 148 b 357 162 362 155 361 159 b 347 166 354 165 350 166 b 334 158 342 165 337 163 b 130 30 279 90 211 47 b 126 45 130 35 128 40 b 93 84 118 64 107 77 b 158 169 136 110 157 138 b 123 210 156 189 144 203 b 101 214 117 212 109 214 b 61 205 89 214 75 211 b 1 159 38 197 18 182 b -2 151 -1 157 -2 154 b 4 138 -2 146 0 142 b 13 136 7 136 10 136 b 25 142 18 136 22 138 b 100 183 47 170 72 183 b 127 168 118 183 127 178 b 100 126 127 154 117 140 b 52 95 82 112 66 102 b 43 82 46 92 43 87 b 56 66 43 74 47 68 b 74 60 59 66 65 64 b 100 26 90 53 98 41 b -184 -88 3 9 -92 -29 b -332 -266 -275 -147 -325 -206 b -284 -345 -331 -307 -315 -333 b -251 -351 -274 -349 -263 -351 z m -251 -320 b -301 -268 -284 -320 -301 -303 l -301 -266 b -167 -113 -295 -218 -250 -168 b 99 -5 -83 -60 5 -23 b 22 -131 94 -33 69 -75 b -143 -281 -41 -205 -96 -254 b -251 -320 -189 -307 -225 -320 z "},"{":{"ha":412,"x_min":0,"x_max":0,"o":""},"|":{"ha":437,"x_min":0,"x_max":0,"o":""},"}":{"ha":541,"x_min":0,"x_max":0,"o":""},"~":{"ha":273,"x_min":0,"x_max":0,"o":""},"":{"ha":420,"x_min":0,"x_max":0,"o":""},"":{"ha":316,"x_min":0,"x_max":0,"o":""},"":{"ha":618,"x_min":0,"x_max":0,"o":""},"":{"ha":443,"x_min":0,"x_max":0,"o":""},"":{"ha":618,"x_min":0,"x_max":0,"o":""},"":{"ha":329,"x_min":0,"x_max":0,"o":""},"":{"ha":527,"x_min":0,"x_max":0,"o":""},"":{"ha":213,"x_min":0,"x_max":0,"o":""},"":{"ha":417,"x_min":0,"x_max":0,"o":""},"":{"ha":230,"x_min":0,"x_max":0,"o":""},"":{"ha":280,"x_min":0,"x_max":0,"o":""},"":{"ha":282,"x_min":0,"x_max":0,"o":""},"":{"ha":419,"x_min":0,"x_max":0,"o":""},"":{"ha":330,"x_min":0,"x_max":0,"o":""},"":{"ha":178,"x_min":0,"x_max":0,"o":""},"":{"ha":394,"x_min":0,"x_max":0,"o":""},"":{"ha":216,"x_min":0,"x_max":0,"o":""},"":{"ha":199,"x_min":0,"x_max":0,"o":""},"":{"ha":154,"x_min":0,"x_max":0,"o":""},"":{"ha":459,"x_min":0,"x_max":0,"o":""},"":{"ha":604,"x_min":0,"x_max":0,"o":""},"":{"ha":88,"x_min":0,"x_max":0,"o":""},"":{"ha":146,"x_min":0,"x_max":0,"o":""},"":{"ha":183,"x_min":0,"x_max":0,"o":""},"":{"ha":219,"x_min":0,"x_max":0,"o":""},"":{"ha":281,"x_min":0,"x_max":0,"o":""},"":{"ha":484,"x_min":0,"x_max":0,"o":""},"":{"ha":484,"x_min":0,"x_max":0,"o":""},"":{"ha":484,"x_min":0,"x_max":0,"o":""},"":{"ha":561,"x_min":0,"x_max":0,"o":""},"":{"ha":1253,"x_min":0,"x_max":0,"o":""},"":{"ha":1354,"x_min":0,"x_max":0,"o":""},"":{"ha":1335,"x_min":0,"x_max":0,"o":""},"":{"ha":1352,"x_min":0,"x_max":0,"o":""},"":{"ha":1350,"x_min":0,"x_max":0,"o":""},"":{"ha":1350,"x_min":0,"x_max":0,"o":""},"":{"ha":1804,"x_min":0,"x_max":0,"o":""},"":{"ha":1001,"x_min":0,"x_max":0,"o":""},"":{"ha":696,"x_min":0,"x_max":0,"o":""},"":{"ha":696,"x_min":0,"x_max":0,"o":""},"":{"ha":696,"x_min":0,"x_max":0,"o":""},"":{"ha":696,"x_min":0,"x_max":0,"o":""},"":{"ha":827,"x_min":0,"x_max":0,"o":""},"":{"ha":899,"x_min":0,"x_max":0,"o":""},"":{"ha":919,"x_min":0,"x_max":0,"o":""},"":{"ha":934,"x_min":0,"x_max":0,"o":""},"":{"ha":1413,"x_min":0,"x_max":0,"o":""},"":{"ha":1286,"x_min":0,"x_max":0,"o":""},"":{"ha":943,"x_min":0,"x_max":0,"o":""},"":{"ha":944,"x_min":0,"x_max":0,"o":""},"":{"ha":944,"x_min":0,"x_max":0,"o":""},"":{"ha":943,"x_min":0,"x_max":0,"o":""},"":{"ha":943,"x_min":0,"x_max":0,"o":""},"":{"ha":367,"x_min":0,"x_max":0,"o":""},"":{"ha":1098,"x_min":0,"x_max":0,"o":""},"":{"ha":1049,"x_min":0,"x_max":0,"o":""},"":{"ha":1048,"x_min":0,"x_max":0,"o":""},"":{"ha":1049,"x_min":0,"x_max":0,"o":""},"":{"ha":1049,"x_min":0,"x_max":0,"o":""},"":{"ha":1185,"x_min":0,"x_max":0,"o":""},"":{"ha":762,"x_min":0,"x_max":0,"o":""},"":{"ha":901,"x_min":0,"x_max":0,"o":""},"":{"ha":374,"x_min":0,"x_max":0,"o":""},"":{"ha":374,"x_min":0,"x_max":0,"o":""},"":{"ha":374,"x_min":0,"x_max":0,"o":""},"":{"ha":374,"x_min":0,"x_max":0,"o":""},"":{"ha":374,"x_min":0,"x_max":0,"o":""},"":{"ha":374,"x_min":0,"x_max":0,"o":""},"":{"ha":569,"x_min":0,"x_max":0,"o":""},"":{"ha":315,"x_min":0,"x_max":0,"o":""},"":{"ha":303,"x_min":0,"x_max":0,"o":""},"":{"ha":298,"x_min":0,"x_max":0,"o":""},"":{"ha":297,"x_min":0,"x_max":0,"o":""},"":{"ha":298,"x_min":0,"x_max":0,"o":""},"":{"ha":290,"x_min":0,"x_max":0,"o":""},"":{"ha":290,"x_min":0,"x_max":0,"o":""},"":{"ha":290,"x_min":0,"x_max":0,"o":""},"":{"ha":290,"x_min":0,"x_max":0,"o":""},"":{"ha":201,"x_min":0,"x_max":0,"o":""},"":{"ha":309,"x_min":0,"x_max":0,"o":""},"":{"ha":278,"x_min":0,"x_max":0,"o":""},"":{"ha":277,"x_min":0,"x_max":0,"o":""},"":{"ha":277,"x_min":0,"x_max":0,"o":""},"":{"ha":278,"x_min":0,"x_max":0,"o":""},"":{"ha":277,"x_min":0,"x_max":0,"o":""},"":{"ha":329,"x_min":0,"x_max":0,"o":""},"":{"ha":302,"x_min":0,"x_max":0,"o":""},"":{"ha":335,"x_min":0,"x_max":0,"o":""},"":{"ha":336,"x_min":0,"x_max":0,"o":""},"":{"ha":335,"x_min":0,"x_max":0,"o":""},"":{"ha":335,"x_min":0,"x_max":0,"o":""},"":{"ha":300,"x_min":0,"x_max":0,"o":""},"":{"ha":308,"x_min":0,"x_max":0,"o":""},"":{"ha":300,"x_min":0,"x_max":0,"o":""},"":{"ha":237,"x_min":0,"x_max":0,"o":""},"":{"ha":120,"x_min":0,"x_max":0,"o":""},"":{"ha":119,"x_min":0,"x_max":0,"o":""},"":{"ha":202,"x_min":0,"x_max":0,"o":""},"":{"ha":220,"x_min":0,"x_max":0,"o":""},"":{"ha":228,"x_min":0,"x_max":0,"o":""},"":{"ha":82,"x_min":0,"x_max":0,"o":""},"":{"ha":155,"x_min":0,"x_max":0,"o":""},"":{"ha":161,"x_min":0,"x_max":0,"o":""},"":{"ha":202,"x_min":0,"x_max":0,"o":""},"":{"ha":132,"x_min":0,"x_max":0,"o":""},"":{"ha":260,"x_min":0,"x_max":0,"o":""},"":{"ha":395,"x_min":0,"x_max":0,"o":""},"":{"ha":102,"x_min":0,"x_max":0,"o":""},"":{"ha":111,"x_min":0,"x_max":0,"o":""},"":{"ha":111,"x_min":0,"x_max":0,"o":""},"":{"ha":161,"x_min":0,"x_max":0,"o":""},"":{"ha":172,"x_min":0,"x_max":0,"o":""},"":{"ha":172,"x_min":0,"x_max":0,"o":""},"":{"ha":528,"x_min":0,"x_max":0,"o":""},"":{"ha":556,"x_min":0,"x_max":0,"o":""},"":{"ha":144,"x_min":0,"x_max":0,"o":""},"":{"ha":252,"x_min":0,"x_max":0,"o":""},"":{"ha":197,"x_min":0,"x_max":0,"o":""},"":{"ha":198,"x_min":0,"x_max":0,"o":""},"":{"ha":630,"x_min":0,"x_max":0,"o":""},"":{"ha":762,"x_min":0,"x_max":0,"o":""},"":{"ha":671,"x_min":0,"x_max":0,"o":""},"":{"ha":861,"x_min":0,"x_max":0,"o":""},"":{"ha":555,"x_min":0,"x_max":0,"o":""},"":{"ha":743,"x_min":0,"x_max":0,"o":""},"":{"ha":519,"x_min":0,"x_max":0,"o":""},"":{"ha":474,"x_min":0,"x_max":0,"o":""},"":{"ha":553,"x_min":0,"x_max":0,"o":""},"":{"ha":675,"x_min":0,"x_max":0,"o":""},"":{"ha":770,"x_min":0,"x_max":0,"o":""},"":{"ha":282,"x_min":0,"x_max":0,"o":""},"":{"ha":568,"x_min":0,"x_max":0,"o":""},"":{"ha":487,"x_min":0,"x_max":0,"o":""},"":{"ha":539,"x_min":0,"x_max":0,"o":""},"":{"ha":321,"x_min":0,"x_max":0,"o":""},"":{"ha":339,"x_min":0,"x_max":0,"o":""},"":{"ha":344,"x_min":0,"x_max":0,"o":""},"":{"ha":561,"x_min":0,"x_max":0,"o":""},"":{"ha":490,"x_min":0,"x_max":0,"o":""},"":{"ha":694,"x_min":0,"x_max":0,"o":""},"":{"ha":2070,"x_min":0,"x_max":0,"o":""},"":{"ha":1383,"x_min":0,"x_max":0,"o":""},"":{"ha":1229,"x_min":0,"x_max":0,"o":""},"":{"ha":618,"x_min":0,"x_max":0,"o":""},"":{"ha":738,"x_min":0,"x_max":0,"o":""},"":{"ha":526,"x_min":0,"x_max":0,"o":""},"":{"ha":595,"x_min":0,"x_max":0,"o":""},"":{"ha":816,"x_min":0,"x_max":0,"o":""},"":{"ha":679,"x_min":0,"x_max":0,"o":""},"":{"ha":592,"x_min":0,"x_max":0,"o":""},"":{"ha":606,"x_min":0,"x_max":0,"o":""},"":{"ha":605,"x_min":0,"x_max":0,"o":""},"":{"ha":659,"x_min":0,"x_max":0,"o":""},"":{"ha":503,"x_min":0,"x_max":0,"o":""},"":{"ha":488,"x_min":0,"x_max":0,"o":""},"":{"ha":597,"x_min":0,"x_max":0,"o":""},"":{"ha":589,"x_min":0,"x_max":0,"o":""},"":{"ha":526,"x_min":0,"x_max":0,"o":""},"":{"ha":520,"x_min":0,"x_max":0,"o":""},"":{"ha":513,"x_min":0,"x_max":0,"o":""},"":{"ha":534,"x_min":0,"x_max":0,"o":""},"":{"ha":574,"x_min":0,"x_max":0,"o":""},"":{"ha":531,"x_min":0,"x_max":0,"o":""},"":{"ha":490,"x_min":0,"x_max":0,"o":""},"":{"ha":549,"x_min":0,"x_max":0,"o":""},"":{"ha":534,"x_min":0,"x_max":0,"o":""},"":{"ha":644,"x_min":0,"x_max":0,"o":""},"":{"ha":529,"x_min":0,"x_max":0,"o":""},"":{"ha":564,"x_min":0,"x_max":0,"o":""},"":{"ha":549,"x_min":0,"x_max":0,"o":""},"":{"ha":491,"x_min":0,"x_max":0,"o":""},"":{"ha":618,"x_min":0,"x_max":0,"o":""},"":{"ha":587,"x_min":0,"x_max":0,"o":""},"":{"ha":595,"x_min":0,"x_max":0,"o":""},"":{"ha":553,"x_min":0,"x_max":0,"o":""},"":{"ha":880,"x_min":0,"x_max":0,"o":""},"":{"ha":877,"x_min":0,"x_max":0,"o":""},"":{"ha":819,"x_min":0,"x_max":0,"o":""},"":{"ha":911,"x_min":0,"x_max":0,"o":""},"":{"ha":801,"x_min":0,"x_max":0,"o":""},"":{"ha":797,"x_min":0,"x_max":0,"o":""},"":{"ha":881,"x_min":0,"x_max":0,"o":""},"":{"ha":848,"x_min":0,"x_max":0,"o":""},"":{"ha":771,"x_min":0,"x_max":0,"o":""},"":{"ha":850,"x_min":0,"x_max":0,"o":""},"":{"ha":810,"x_min":0,"x_max":0,"o":""},"":{"ha":856,"x_min":0,"x_max":0,"o":""},"":{"ha":878,"x_min":0,"x_max":0,"o":""},"":{"ha":793,"x_min":0,"x_max":0,"o":""},"":{"ha":842,"x_min":0,"x_max":0,"o":""},"":{"ha":824,"x_min":0,"x_max":0,"o":""},"":{"ha":922,"x_min":0,"x_max":0,"o":""},"":{"ha":921,"x_min":0,"x_max":0,"o":""},"":{"ha":850,"x_min":0,"x_max":0,"o":""},"":{"ha":876,"x_min":0,"x_max":0,"o":""},"":{"ha":901,"x_min":0,"x_max":0,"o":""},"":{"ha":863,"x_min":0,"x_max":0,"o":""},"":{"ha":947,"x_min":0,"x_max":0,"o":""},"":{"ha":956,"x_min":0,"x_max":0,"o":""},"":{"ha":867,"x_min":0,"x_max":0,"o":""},"":{"ha":937,"x_min":0,"x_max":0,"o":""},"":{"ha":2205,"x_min":0,"x_max":0,"o":""},"":{"ha":2279,"x_min":0,"x_max":0,"o":""},"":{"ha":1905,"x_min":0,"x_max":0,"o":""},"":{"ha":2320,"x_min":0,"x_max":0,"o":""},"":{"ha":1779,"x_min":0,"x_max":0,"o":""},"":{"ha":1309,"x_min":0,"x_max":0,"o":""}}}
